<?xml version="1.0" encoding="UTF-8" standalone="no"?>
<!-- Created with Inkscape (http://www.inkscape.org/) -->

<svg
   xmlns:dc="http://purl.org/dc/elements/1.1/"
   xmlns:cc="http://creativecommons.org/ns#"
   xmlns:rdf="http://www.w3.org/1999/02/22-rdf-syntax-ns#"
   xmlns:svg="http://www.w3.org/2000/svg"
   xmlns="http://www.w3.org/2000/svg"
   xmlns:xlink="http://www.w3.org/1999/xlink"
   xmlns:sodipodi="http://sodipodi.sourceforge.net/DTD/sodipodi-0.dtd"
   xmlns:inkscape="http://www.inkscape.org/namespaces/inkscape"
   width="256"
   height="256"
   id="svg2"
   version="1.1"
   inkscape:version="0.48.4 r9939"
   sodipodi:docname="New document 1">
  <defs
     id="defs4">
    <linearGradient
       id="linearGradient3784">
      <stop
         style="stop-color:#4455bf;stop-opacity:1;"
         offset="0"
         id="stop3786" />
      <stop
         style="stop-color:#96b8db;stop-opacity:1;"
         offset="1"
         id="stop3788" />
    </linearGradient>
    <linearGradient
       inkscape:collect="always"
       xlink:href="#linearGradient3784"
       id="linearGradient3794"
       x1="-3.5714285"
       y1="1048.6479"
       x2="254.57143"
       y2="797.93359"
       gradientUnits="userSpaceOnUse" />
    <filter
       inkscape:collect="always"
       id="filter3832">
      <feGaussianBlur
         inkscape:collect="always"
         stdDeviation="0.85914844"
         id="feGaussianBlur3834" />
    </filter>
  </defs>
  <sodipodi:namedview
     id="base"
     pagecolor="#ffffff"
     bordercolor="#666666"
     borderopacity="1.0"
     inkscape:pageopacity="0.0"
     inkscape:pageshadow="2"
     inkscape:zoom="1"
     inkscape:cx="-52.108061"
     inkscape:cy="111.08971"
     inkscape:document-units="px"
     inkscape:current-layer="layer2"
     showgrid="false"
     width="128px"
     showguides="true"
     inkscape:guide-bbox="true"
     inkscape:window-width="1280"
     inkscape:window-height="750"
     inkscape:window-x="0"
     inkscape:window-y="0"
     inkscape:window-maximized="1" />
  <metadata
     id="metadata7">
    <rdf:RDF>
      <cc:Work
         rdf:about="">
        <dc:format>image/svg+xml</dc:format>
        <dc:type
           rdf:resource="http://purl.org/dc/dcmitype/StillImage" />
        <dc:title></dc:title>
      </cc:Work>
    </rdf:RDF>
  </metadata>
  <g
     inkscape:label="BackGround"
     inkscape:groupmode="layer"
     id="layer1"
     transform="translate(0,-796.3622)"
     sodipodi:insensitive="true">
    <rect
       style="fill:url(#linearGradient3794);fill-opacity:1;fill-rule:evenodd;stroke:none"
       id="rect2985"
       width="256"
       height="256"
       x="0"
       y="796.36218" />
  </g>
  <g
     inkscape:groupmode="layer"
     id="layer3"
     inkscape:label="Bars"
     sodipodi:insensitive="true">
    <g
       id="g3957"
       transform="translate(-217.0681,-79.209633)"
       style="opacity:0.18264842">
      <rect
         style="fill:#204a87;stroke:none"
         id="rect3844"
         width="4.9497476"
         height="298.39905"
         x="218.59323"
         y="59.010109" />
      <rect
         style="fill:#204a87;stroke:none"
         id="rect3846"
         width="4.9497476"
         height="298.39905"
         x="231.64586"
         y="57.010109" />
      <rect
         style="fill:#204a87;stroke:none"
         id="rect3848"
         width="4.9497476"
         height="298.39905"
         x="244.6985"
         y="57.010109" />
      <rect
         style="fill:#204a87;stroke:none"
         id="rect3850"
         width="4.9497476"
         height="298.39905"
         x="257.75113"
         y="57.010109" />
      <rect
         style="fill:#204a87;stroke:none"
         id="rect3852"
         width="4.9497476"
         height="298.39905"
         x="270.80377"
         y="57.010109" />
      <rect
         style="fill:#204a87;stroke:none"
         id="rect3854"
         width="4.9497476"
         height="298.39905"
         x="283.85638"
         y="57.010109" />
      <rect
         style="fill:#204a87;stroke:none"
         id="rect3856"
         width="4.9497476"
         height="298.39905"
         x="296.90903"
         y="57.010109" />
      <rect
         style="fill:#204a87;stroke:none"
         id="rect3858"
         width="4.9497476"
         height="298.39905"
         x="309.96167"
         y="57.010109" />
      <rect
         style="fill:#204a87;stroke:none"
         id="rect3860"
         width="4.9497476"
         height="298.39905"
         x="323.01428"
         y="57.010109" />
      <rect
         style="fill:#204a87;stroke:none"
         id="rect3862"
         width="4.9497476"
         height="298.39905"
         x="336.06693"
         y="57.010109" />
      <rect
         style="fill:#204a87;stroke:none"
         id="rect3864"
         width="4.9497476"
         height="298.39905"
         x="349.11954"
         y="57.010109" />
      <rect
         style="fill:#204a87;stroke:none"
         id="rect3866"
         width="4.9497476"
         height="298.39905"
         x="362.17218"
         y="57.010109" />
      <rect
         style="fill:#204a87;stroke:none"
         id="rect3868"
         width="4.9497476"
         height="298.39905"
         x="375.22482"
         y="57.010109" />
      <rect
         style="fill:#204a87;stroke:none"
         id="rect3870"
         width="4.9497476"
         height="298.39905"
         x="388.27744"
         y="57.010109" />
      <rect
         style="fill:#204a87;stroke:none"
         id="rect3872"
         width="4.9497476"
         height="298.39905"
         x="401.33008"
         y="57.010109" />
      <rect
         style="fill:#204a87;stroke:none"
         id="rect3874"
         width="4.9497476"
         height="298.39905"
         x="414.38272"
         y="57.010109" />
      <rect
         style="fill:#204a87;stroke:none"
         id="rect3876"
         width="4.9497476"
         height="298.39905"
         x="427.43533"
         y="57.010109" />
      <rect
         style="fill:#204a87;stroke:none"
         id="rect3878"
         width="4.9497476"
         height="298.39905"
         x="440.48798"
         y="57.510109" />
      <rect
         style="fill:#204a87;stroke:none"
         id="rect3880"
         width="4.9497476"
         height="298.39905"
         x="453.54059"
         y="57.510109" />
      <rect
         y="57.510109"
         x="466.59323"
         height="298.39905"
         width="4.9497476"
         id="rect3842"
         style="fill:#204a87;stroke:none" />
    </g>
  </g>
  <g
     inkscape:groupmode="layer"
     id="layer2"
     inkscape:label="Text">
    <path
       transform="translate(6.3778047,5.1887988)"
       d="m 4.96875,81.84375 c -0.06783,0.0034 -0.182418,0.02454 -0.25,0.03125 -0.067582,0.0067 -0.182828,0.02124 -0.25,0.03125 -0.067172,0.01001 -0.1833995,0.01796 -0.25,0.03125 -0.0666,0.01329 -0.1841312,0.04596 -0.25,0.0625 -0.065869,0.01654 -0.1850211,0.04275 -0.25,0.0625 -0.064979,0.01975 -0.1860672,0.07084 -0.25,0.09375 -0.063933,0.02291 -0.156017,0.03648 -0.21875,0.0625 -0.062733,0.02602 -0.1886175,0.09594 -0.25,0.125 -0.061383,0.02906 -0.1588657,0.06172 -0.21875,0.09375 -0.059884,0.03203 -0.1605077,0.09007 -0.21875,0.125 -0.058242,0.03493 -0.1622898,0.118506 -0.21875,0.15625 -0.05646,0.03774 -0.1329575,0.08453 -0.1875,0.125 C 2.1017075,82.884216 1.9899936,82.95691 1.9375,83 1.8850064,83.04309 1.8003186,83.141889 1.75,83.1875 c -0.050319,0.04561 -0.1394774,0.108227 -0.1875,0.15625 -0.048023,0.04802 -0.1106388,0.137181 -0.15625,0.1875 -0.045611,0.05032 -0.1444098,0.135006 -0.1875,0.1875 -0.04309,0.05249 -0.1157844,0.164208 -0.15625,0.21875 -0.040466,0.05454 -0.0872563,0.13104 -0.125,0.1875 -0.0377437,0.05646 -0.12131888,0.160508 -0.15625,0.21875 -0.0349311,0.05824 -0.0929654,0.158866 -0.125,0.21875 -0.0320346,0.05988 -0.064689,0.157368 -0.09375,0.21875 -0.029061,0.06138 -0.0989824,0.187267 -0.125,0.25 -0.0260176,0.06273 -0.0395883,0.154817 -0.0625,0.21875 -0.0229117,0.06393 -0.0739994,0.185021 -0.09375,0.25 -0.0197506,0.06498 -0.0459578,0.184131 -0.0625,0.25 -0.0165422,0.06587 -0.0492061,0.1834 -0.0625,0.25 -0.0132939,0.0666 -0.0212363,0.182828 -0.03125,0.25 -0.0100137,0.06717 -0.0245406,0.182418 -0.03125,0.25 -0.0067094,0.06758 -0.02786098,0.18217 -0.03125,0.25 -0.003389,0.06783 6.047e-5,0.182086 0,0.25 l 0,8.53125 c 6.047e-5,0.06791 -0.003389,0.18217 0,0.25 0.003389,0.06783 0.02454058,0.182418 0.03125,0.25 0.0067094,0.06758 0.02123631,0.182828 0.03125,0.25 0.0100137,0.06717 0.0179561,0.1834 0.03125,0.25 0.0132939,0.0666 0.0459578,0.184131 0.0625,0.25 0.0165422,0.06587 0.0427494,0.185021 0.0625,0.25 0.0197506,0.06498 0.0708383,0.186067 0.09375,0.25 0.0229117,0.06393 0.0364824,0.156017 0.0625,0.21875 0.0260176,0.06273 0.095939,0.188618 0.125,0.25 0.029061,0.06138 0.0617154,0.158866 0.09375,0.21875 0.0320346,0.05988 0.0900689,0.160508 0.125,0.21875 0.0349311,0.05824 0.11850629,0.16229 0.15625,0.21875 0.0377437,0.05646 0.0845344,0.132958 0.125,0.1875 0.040466,0.05454 0.1131598,0.166256 0.15625,0.21875 0.04309,0.05249 0.1418888,0.137181 0.1875,0.1875 0.045611,0.05032 0.1082274,0.139477 0.15625,0.1875 0.048023,0.04802 0.1371814,0.110639 0.1875,0.15625 0.050319,0.04561 0.1350064,0.14441 0.1875,0.1875 0.052494,0.04309 0.1642075,0.115784 0.21875,0.15625 0.054543,0.04047 0.1310398,0.08726 0.1875,0.125 0.05646,0.03774 0.1605077,0.121319 0.21875,0.15625 0.058242,0.03493 0.1588657,0.09297 0.21875,0.125 0.059884,0.032 0.1573675,0.0647 0.21875,0.0937 0.061383,0.0291 0.187267,0.099 0.25,0.125 0.062733,0.026 0.1548172,0.0396 0.21875,0.0625 0.063933,0.0229 0.1850211,0.074 0.25,0.0937 0.064979,0.0198 0.1841312,0.046 0.25,0.0625 0.065869,0.0165 0.1833995,0.0492 0.25,0.0625 0.0666,0.0133 0.182828,0.0212 0.25,0.0312 0.067172,0.01 0.182418,0.0245 0.25,0.0312 0.067582,0.007 0.1821703,0.0279 0.25,0.0312 0.06783,0.003 0.1820858,-6e-5 0.25,0 l 18.40625,0 0,61.40625 c 6e-5,0.0679 -0.0034,0.18217 0,0.25 0.0034,0.0678 0.02454,0.18242 0.03125,0.25 0.0067,0.0676 0.02124,0.18283 0.03125,0.25 0.01001,0.0672 0.01796,0.1834 0.03125,0.25 0.01329,0.0666 0.04596,0.18413 0.0625,0.25 0.01654,0.0659 0.04275,0.18502 0.0625,0.25 0.01975,0.065 0.07084,0.18607 0.09375,0.25 0.02291,0.0639 0.03648,0.15602 0.0625,0.21875 0.02602,0.0627 0.09594,0.18862 0.125,0.25 0.02906,0.0614 0.06171,0.15887 0.09375,0.21875 0.03204,0.0599 0.09007,0.16051 0.125,0.21875 0.03493,0.0582 0.118506,0.16229 0.15625,0.21875 0.03774,0.0565 0.08453,0.13296 0.125,0.1875 0.04047,0.0545 0.11316,0.16626 0.15625,0.21875 0.04309,0.0525 0.141889,0.13718 0.1875,0.1875 0.04561,0.0503 0.108227,0.13948 0.15625,0.1875 0.04802,0.048 0.137181,0.11064 0.1875,0.15625 0.05032,0.0456 0.135006,0.14441 0.1875,0.1875 0.05249,0.0431 0.164208,0.11578 0.21875,0.15625 0.05454,0.0405 0.13104,0.0873 0.1875,0.125 0.05646,0.0377 0.160508,0.12132 0.21875,0.15625 0.05824,0.0349 0.158866,0.093 0.21875,0.125 0.05988,0.032 0.157368,0.0647 0.21875,0.0937 0.06138,0.0291 0.187267,0.099 0.25,0.125 0.06273,0.026 0.154817,0.0396 0.21875,0.0625 0.06393,0.0229 0.185021,0.074 0.25,0.0937 0.06498,0.0197 0.184131,0.046 0.25,0.0625 0.06587,0.0165 0.1834,0.0492 0.25,0.0625 0.0666,0.0133 0.182828,0.0212 0.25,0.0312 0.06717,0.01 0.182418,0.0245 0.25,0.0312 0.06758,0.007 0.18217,0.0279 0.25,0.0312 0.06783,0.003 0.182086,-6e-5 0.25,0 L 39,167.25 c 0.06791,-6e-5 0.18217,0.003 0.25,0 0.06783,-0.003 0.182418,-0.0245 0.25,-0.0312 0.06758,-0.007 0.182828,-0.0212 0.25,-0.0312 0.06717,-0.01 0.1834,-0.018 0.25,-0.0312 0.0666,-0.0133 0.184131,-0.046 0.25,-0.0625 0.06587,-0.0165 0.185021,-0.0428 0.25,-0.0625 0.06498,-0.0197 0.186067,-0.0708 0.25,-0.0937 0.06393,-0.0229 0.156017,-0.0365 0.21875,-0.0625 0.06273,-0.026 0.188618,-0.0959 0.25,-0.125 0.06138,-0.0291 0.158866,-0.0617 0.21875,-0.0937 0.05988,-0.032 0.160508,-0.0901 0.21875,-0.125 0.05824,-0.0349 0.16229,-0.11851 0.21875,-0.15625 0.05646,-0.0377 0.132958,-0.0845 0.1875,-0.125 0.05454,-0.0405 0.166256,-0.11316 0.21875,-0.15625 0.05249,-0.0431 0.137181,-0.14189 0.1875,-0.1875 0.05032,-0.0456 0.139477,-0.10823 0.1875,-0.15625 0.04802,-0.048 0.110639,-0.13718 0.15625,-0.1875 0.04561,-0.0503 0.14441,-0.13501 0.1875,-0.1875 0.04309,-0.0525 0.115784,-0.16421 0.15625,-0.21875 0.04047,-0.0545 0.08726,-0.13104 0.125,-0.1875 0.03774,-0.0565 0.121319,-0.16051 0.15625,-0.21875 0.03493,-0.0582 0.09296,-0.15887 0.125,-0.21875 0.03204,-0.0599 0.06469,-0.15737 0.09375,-0.21875 0.02906,-0.0614 0.09898,-0.18727 0.125,-0.25 0.02602,-0.0627 0.03959,-0.15482 0.0625,-0.21875 0.02291,-0.0639 0.074,-0.18502 0.09375,-0.25 0.01975,-0.065 0.04596,-0.18413 0.0625,-0.25 0.01654,-0.0659 0.04921,-0.1834 0.0625,-0.25 0.01329,-0.0666 0.02124,-0.18283 0.03125,-0.25 0.01001,-0.0672 0.02454,-0.18242 0.03125,-0.25 0.0067,-0.0676 0.02786,-0.18217 0.03125,-0.25 0.0034,-0.0678 -6e-5,-0.18209 0,-0.25 l 0,-61.40625 18.34375,0 c 0.05772,2e-5 0.161083,0.002 0.21875,0 0.05767,-0.002 0.161232,0.005 0.21875,0 0.05752,-0.005 0.161481,-0.0241 0.21875,-0.0312 0.05727,-0.007 0.130579,-0.0217 0.1875,-0.0312 0.05692,-0.01 0.162277,-0.0193 0.21875,-0.0312 0.05647,-0.0119 0.162822,-0.0482 0.21875,-0.0625 0.05593,-0.0143 0.163464,-0.0459 0.21875,-0.0625 0.05529,-0.0166 0.132953,-0.0436 0.1875,-0.0625 0.05455,-0.0189 0.165036,-0.0414 0.21875,-0.0625 0.05371,-0.0211 0.134712,-0.0704 0.1875,-0.0937 0.05279,-0.0233 0.13573,-0.0682 0.1875,-0.0937 0.05177,-0.0255 0.136838,-0.0661 0.1875,-0.0937 0.05066,-0.0276 0.138034,-0.06401 0.1875,-0.09375 0.04947,-0.02974 0.139316,-0.09323 0.1875,-0.125 0.04818,-0.03177 0.140681,-0.09125 0.1875,-0.125 0.04682,-0.03375 0.110877,-0.08933 0.15625,-0.125 0.04537,-0.03567 0.143653,-0.118719 0.1875,-0.15625 0.04385,-0.03753 0.114004,-0.08567 0.15625,-0.125 0.04225,-0.03933 0.115679,-0.115199 0.15625,-0.15625 0.04057,-0.04105 0.08617,-0.113545 0.125,-0.15625 0.03883,-0.0427 0.119237,-0.111964 0.15625,-0.15625 0.01851,-0.02214 0.03788,-0.06301 0.0625,-0.09375 l 0,63.34375 c 6e-5,0.0679 -0.0034,0.18217 0,0.25 0.0034,0.0678 0.02454,0.18242 0.03125,0.25 0.0067,0.0676 0.02124,0.18283 0.03125,0.25 0.01001,0.0672 0.01796,0.1834 0.03125,0.25 0.01329,0.0666 0.04596,0.18413 0.0625,0.25 0.01654,0.0659 0.04275,0.18502 0.0625,0.25 0.01975,0.065 0.07084,0.18607 0.09375,0.25 0.02291,0.0639 0.03648,0.15602 0.0625,0.21875 0.02602,0.0627 0.09594,0.18862 0.125,0.25 0.02906,0.0614 0.06172,0.15887 0.09375,0.21875 0.03203,0.0599 0.09007,0.16051 0.125,0.21875 0.03493,0.0582 0.118506,0.16229 0.15625,0.21875 0.03774,0.0565 0.08453,0.13296 0.125,0.1875 0.04047,0.0545 0.11316,0.16626 0.15625,0.21875 0.04309,0.0525 0.141889,0.13718 0.1875,0.1875 0.04561,0.0503 0.108227,0.13948 0.15625,0.1875 0.04802,0.048 0.137181,0.11064 0.1875,0.15625 0.05032,0.0456 0.135006,0.14441 0.1875,0.1875 0.05249,0.0431 0.164208,0.11578 0.21875,0.15625 0.05454,0.0405 0.13104,0.0873 0.1875,0.125 0.05646,0.0377 0.160508,0.12132 0.21875,0.15625 0.05824,0.0349 0.158866,0.093 0.21875,0.125 0.05988,0.032 0.157368,0.0647 0.21875,0.0937 0.06138,0.0291 0.187267,0.099 0.25,0.125 0.06273,0.026 0.154817,0.0396 0.21875,0.0625 0.06393,0.0229 0.185021,0.074 0.25,0.0937 0.06498,0.0197 0.184131,0.046 0.25,0.0625 0.06587,0.0165 0.1834,0.0492 0.25,0.0625 0.0666,0.0133 0.182828,0.0212 0.25,0.0312 0.06717,0.01 0.182418,0.0245 0.25,0.0312 0.06758,0.007 0.18217,0.0279 0.25,0.0312 0.06783,0.003 0.182086,-6e-5 0.25,0 l 15.25,0 c 12.380234,0 22.54825,-3.39461 29.1875,-10.8125 6.62251,-7.44015 9.46869,-18.271 9.46875,-31.8125 -6e-5,-13.60462 -2.84141,-24.46057 -9.46875,-31.90625 -6.63267,-7.451379 -16.798697,-10.874919 -29.1875,-10.875 l -15.25,0 c -0.06066,0 -0.158146,-0.0027 -0.21875,0 -0.0606,0.0027 -0.158321,-0.0053 -0.21875,0 -0.06043,0.0053 -0.189861,0.0233 -0.25,0.03125 -0.06014,0.0079 -0.159017,0.02068 -0.21875,0.03125 -0.05973,0.01057 -0.159537,0.04932 -0.21875,0.0625 -0.05921,0.01318 -0.160171,0.04674 -0.21875,0.0625 -0.05858,0.01576 -0.160917,0.04419 -0.21875,0.0625 -0.05783,0.01831 -0.161774,0.04168 -0.21875,0.0625 -0.05698,0.02082 -0.13149,0.07045 -0.1875,0.09375 -0.05601,0.0233 -0.163813,0.03677 -0.21875,0.0625 -0.05494,0.02573 -0.164992,0.09689 -0.21875,0.125 -0.05376,0.02811 -0.135025,0.06332 -0.1875,0.09375 -0.05248,0.03043 -0.136407,0.0923 -0.1875,0.125 -0.05109,0.0327 -0.137888,0.09009 -0.1875,0.125 -0.04961,0.03491 -0.139464,0.08795 -0.1875,0.125 -0.04804,0.03705 -0.141132,0.117137 -0.1875,0.15625 -0.04637,0.03911 -0.111639,0.115144 -0.15625,0.15625 -0.04461,0.04111 -0.113481,0.11323 -0.15625,0.15625 -0.04277,0.04302 -0.115406,0.111399 -0.15625,0.15625 -0.04084,0.04485 -0.117408,0.109654 -0.15625,0.15625 -0.03884,0.0466 -0.08824,0.139248 -0.125,0.1875 -0.03676,0.04825 -0.121634,0.137685 -0.15625,0.1875 -0.03462,0.04981 -0.0926,0.136217 -0.125,0.1875 -0.0324,0.05128 -0.06362,0.134847 -0.09375,0.1875 -0.03013,0.05265 -0.09721,0.133579 -0.125,0.1875 -0.02779,-0.05392 -0.09487,-0.134847 -0.125,-0.1875 -0.03013,-0.05265 -0.06135,-0.136217 -0.09375,-0.1875 -0.0324,-0.05128 -0.09038,-0.137685 -0.125,-0.1875 -0.03462,-0.04981 -0.119486,-0.139248 -0.15625,-0.1875 -0.03676,-0.04825 -0.08616,-0.140904 -0.125,-0.1875 -0.03884,-0.0466 -0.115406,-0.111399 -0.15625,-0.15625 C 66.271656,83.486399 66.199019,83.41802 66.15625,83.375 66.113481,83.33198 66.044611,83.259856 66,83.21875 c -0.04461,-0.04111 -0.109882,-0.117137 -0.15625,-0.15625 -0.04637,-0.03911 -0.139464,-0.119204 -0.1875,-0.15625 -0.04804,-0.03705 -0.137888,-0.09009 -0.1875,-0.125 -0.04961,-0.03491 -0.136407,-0.0923 -0.1875,-0.125 -0.05109,-0.0327 -0.135025,-0.09457 -0.1875,-0.125 -0.05248,-0.03043 -0.133742,-0.06564 -0.1875,-0.09375 -0.05376,-0.02811 -0.163813,-0.09927 -0.21875,-0.125 -0.05494,-0.02573 -0.16274,-0.0392 -0.21875,-0.0625 -0.05601,-0.0233 -0.130524,-0.07293 -0.1875,-0.09375 -0.05698,-0.02082 -0.160917,-0.04419 -0.21875,-0.0625 -0.05783,-0.01831 -0.160171,-0.04674 -0.21875,-0.0625 -0.05858,-0.01576 -0.159537,-0.04932 -0.21875,-0.0625 -0.05921,-0.01318 -0.159017,-0.05193 -0.21875,-0.0625 -0.05973,-0.01057 -0.158611,-0.0233 -0.21875,-0.03125 -0.06014,-0.0079 -0.189571,-0.02594 -0.25,-0.03125 -0.06043,-0.0053 -0.158146,0.0027 -0.21875,0 -0.0606,-0.0027 -0.158088,0 -0.21875,0 l -57.28125,0 c -0.067914,6e-5 -0.1821703,-0.0034 -0.25,0 z M 159.53125,99.25 c -9.1973,6.9e-5 -17.36331,3.2822 -23.15625,9.71875 -5.79001,6.4334 -8.56251,15.0819 -8.5625,25 -1e-5,10.14995 2.81908,18.91351 8.78125,25.28125 5.97631,6.34223 14.49425,9.46875 24.28125,9.46875 3.38979,0 6.84257,-0.45111 10.3125,-1.21875 0.0405,-0.009 0.0845,0.009 0.125,0 a 0.5051268,0.5051268 0 0 0 0.0937,0 c 0.024,-0.005 0.0122,-0.0252 0.0312,-0.0312 0.0133,-0.004 0.0202,0.004 0.0312,0 0.0111,-0.004 0.0222,0.004 0.0312,0 3.58922,-0.77554 7.29012,-1.93669 11.03125,-3.46875 0.0471,-0.0196 0.1411,-0.0725 0.1875,-0.0937 0.0464,-0.0213 0.11067,-0.0395 0.15625,-0.0625 0.0456,-0.023 0.14279,-0.0691 0.1875,-0.0937 0.0447,-0.0246 0.11248,-0.0675 0.15625,-0.0937 0.0438,-0.0263 0.11348,-0.0659 0.15625,-0.0937 0.0428,-0.0279 0.11454,-0.0956 0.15625,-0.125 0.0417,-0.0294 0.11565,-0.0628 0.15625,-0.0937 0.0406,-0.0309 0.11682,-0.0926 0.15625,-0.125 0.0394,-0.0324 0.0868,-0.0912 0.125,-0.125 0.0382,-0.0338 0.11931,-0.0898 0.15625,-0.125 0.0369,-0.0352 0.0894,-0.0884 0.125,-0.125 0.0356,-0.0366 0.0908,-0.1184 0.125,-0.15625 0.0342,-0.0378 0.0922,-0.0859 0.125,-0.125 0.0328,-0.0391 0.0936,-0.11598 0.125,-0.15625 0.0314,-0.0403 0.0951,-0.11485 0.125,-0.15625 0.0299,-0.0414 0.0654,-0.11378 0.0937,-0.15625 0.0283,-0.0425 0.0983,-0.11276 0.125,-0.15625 0.0267,-0.0435 0.0686,-0.11181 0.0937,-0.15625 0.0251,-0.0444 0.0703,-0.14216 0.0937,-0.1875 0.0235,-0.0453 0.0407,-0.11008 0.0625,-0.15625 0.0218,-0.0462 0.0737,-0.14056 0.0937,-0.1875 0.02,-0.0469 0.0442,-0.1086 0.0625,-0.15625 0.0183,-0.0477 0.046,-0.13921 0.0625,-0.1875 0.0165,-0.0483 0.0478,-0.13863 0.0625,-0.1875 0.0147,-0.0489 0.0496,-0.13812 0.0625,-0.1875 0.0129,-0.0494 0.0201,-0.13768 0.0312,-0.1875 0.0111,-0.0498 0.022,-0.1373 0.0312,-0.1875 0.009,-0.0502 0.0238,-0.137 0.0312,-0.1875 0.007,-0.0505 0.0257,-0.13676 0.0312,-0.1875 0.006,-0.0507 0.0276,-0.13659 0.0312,-0.1875 0.004,-0.0509 -0.002,-0.13649 0,-0.1875 0.002,-0.051 8e-5,-0.13645 0,-0.1875 l 0,-9.1875 c -1.7e-4,-0.0887 0.006,-0.25526 0,-0.34375 -0.006,-0.0885 -0.0198,-0.22456 -0.0312,-0.3125 -0.0115,-0.0879 -0.0454,-0.25673 -0.0625,-0.34375 -0.0171,-0.087 -0.0399,-0.22675 -0.0625,-0.3125 -0.0226,-0.0857 -0.0657,-0.22837 -0.0937,-0.3125 -0.0281,-0.0841 -0.0916,-0.23034 -0.125,-0.3125 -0.0334,-0.0822 -0.0864,-0.23264 -0.125,-0.3125 -0.0386,-0.0799 -0.11264,-0.20403 -0.15625,-0.28125 -0.0436,-0.0772 -0.13904,-0.20698 -0.1875,-0.28125 -0.0485,-0.0743 -0.13438,-0.21023 -0.1875,-0.28125 -0.0531,-0.071 -0.12995,-0.18252 -0.1875,-0.25 -0.0575,-0.0675 -0.157,-0.18634 -0.21875,-0.25 -0.0617,-0.0637 -0.1843,-0.15918 -0.25,-0.21875 -0.0657,-0.0596 -0.18062,-0.1635 -0.25,-0.21875 -0.0694,-0.0553 -0.20848,-0.1368 -0.28125,-0.1875 -0.0728,-0.0507 -0.20539,-0.14156 -0.28125,-0.1875 -0.0759,-0.0459 -0.2026,-0.11526 -0.28125,-0.15625 -0.0787,-0.041 -0.20014,-0.12038 -0.28125,-0.15625 -0.0811,-0.0359 -0.22926,-0.0944 -0.3125,-0.125 -0.0832,-0.0306 -0.22747,-0.0685 -0.3125,-0.0937 -0.085,-0.0252 -0.22603,-0.074 -0.3125,-0.0937 -0.0865,-0.0197 -0.2562,-0.0483 -0.34375,-0.0625 -0.0875,-0.0142 -0.22422,-0.0227 -0.3125,-0.0312 -0.0883,-0.009 -0.25511,-0.0284 -0.34375,-0.0312 -0.0886,-0.003 -0.22386,-0.003 -0.3125,0 -0.0886,0.003 -0.25547,0.0228 -0.34375,0.0312 -0.0883,0.008 -0.22494,0.0171 -0.3125,0.0312 -0.0876,0.0141 -0.25728,0.0428 -0.34375,0.0625 -0.0865,0.0197 -0.22746,0.0686 -0.3125,0.0937 -0.085,0.0252 -0.22925,0.0632 -0.3125,0.0937 -0.0832,0.0306 -0.23138,0.0892 -0.3125,0.125 -0.0811,0.0358 -0.20259,0.1153 -0.28125,0.15625 -3.41412,1.78535 -6.59224,3.05424 -9.40625,3.875 -2.81179,0.82011 -5.37523,1.21876 -7.78125,1.21875 -4.85591,1e-5 -7.69727,-1.20157 -9.84375,-3.4375 -1.34344,-1.41413 -2.3021,-3.31075 -2.84375,-5.84375 l 34.40625,0 c 0.0679,-6e-5 0.18217,0.003 0.25,0 0.0678,-0.003 0.18242,-0.0245 0.25,-0.0312 0.0676,-0.007 0.18283,-0.0212 0.25,-0.0312 0.0672,-0.01 0.1834,-0.018 0.25,-0.0312 0.0666,-0.0133 0.18413,-0.046 0.25,-0.0625 0.0659,-0.0165 0.18502,-0.0428 0.25,-0.0625 0.065,-0.0197 0.18607,-0.0708 0.25,-0.0937 0.0639,-0.0229 0.15602,-0.0365 0.21875,-0.0625 0.0627,-0.026 0.18862,-0.0959 0.25,-0.125 0.0614,-0.0291 0.15887,-0.0617 0.21875,-0.0937 0.0599,-0.032 0.16051,-0.0901 0.21875,-0.125 0.0582,-0.0349 0.16229,-0.11851 0.21875,-0.15625 0.0565,-0.0377 0.13296,-0.0845 0.1875,-0.125 0.0545,-0.0405 0.16626,-0.11316 0.21875,-0.15625 0.0525,-0.0431 0.13718,-0.14189 0.1875,-0.1875 0.0503,-0.0456 0.13948,-0.10823 0.1875,-0.15625 0.048,-0.048 0.11064,-0.13718 0.15625,-0.1875 0.0456,-0.0503 0.14441,-0.13501 0.1875,-0.1875 0.0431,-0.0525 0.11578,-0.16421 0.15625,-0.21875 0.0405,-0.0545 0.0873,-0.13104 0.125,-0.1875 0.0377,-0.0565 0.12132,-0.16051 0.15625,-0.21875 0.0349,-0.0582 0.093,-0.15887 0.125,-0.21875 0.032,-0.0599 0.0647,-0.15737 0.0937,-0.21875 0.0291,-0.0614 0.099,-0.18727 0.125,-0.25 0.026,-0.0627 0.0396,-0.15482 0.0625,-0.21875 0.0229,-0.0639 0.074,-0.18502 0.0937,-0.25 0.0197,-0.065 0.046,-0.18413 0.0625,-0.25 0.0165,-0.0659 0.0492,-0.1834 0.0625,-0.25 0.0133,-0.0666 0.0212,-0.18283 0.0312,-0.25 0.01,-0.0672 0.0245,-0.18242 0.0312,-0.25 0.007,-0.0676 0.0279,-0.18217 0.0312,-0.25 0.003,-0.0678 -6e-5,-0.18209 0,-0.25 l 0,-4.5 c -7e-5,-9.2578 -2.3715,-17.26972 -7.46875,-23.25 -0.0618,-0.0728 -0.0734,-0.0807 -0.0312,-0.0312 -5.08663,-5.9744 -12.51122,-9.09368 -20.84375,-9.09375 z m -72.46875,1.28125 c 7.511074,0.0554 11.54259,1.86935 13.53125,4.375 a 0.5051268,0.5051268 0 0 0 0.0312,0.0312 c 1.94538,2.40771 3.93746,9.11724 3.9375,19.6875 -4e-5,10.44274 -1.96193,17.11183 -3.9375,19.59375 -2.016736,2.49593 -6.07618,4.28865 -13.5625,4.34375 l 0,-48.03125 z m 106.40625,0.0625 c -0.0828,0.005 -0.23018,0.0216 -0.3125,0.0312 -0.0823,0.01 -0.19966,0.0167 -0.28125,0.0312 -0.0816,0.0145 -0.23192,0.0431 -0.3125,0.0625 -0.0806,0.0194 -0.23323,0.0696 -0.3125,0.0937 -0.0793,0.0242 -0.20357,0.0649 -0.28125,0.0937 -0.0777,0.0289 -0.20543,0.0915 -0.28125,0.125 -0.0758,0.0335 -0.20757,0.0871 -0.28125,0.125 -0.0737,0.0379 -0.20997,0.11396 -0.28125,0.15625 -0.0713,0.0423 -0.18138,0.10977 -0.25,0.15625 -0.0686,0.0465 -0.18428,0.137 -0.25,0.1875 -0.0657,0.0505 -0.18742,0.13316 -0.25,0.1875 -0.0626,0.0543 -0.15953,0.16077 -0.21875,0.21875 -0.0592,0.058 -0.1631,0.15733 -0.21875,0.21875 -0.0557,0.0614 -0.13563,0.18536 -0.1875,0.25 -0.0519,0.0646 -0.13958,0.18237 -0.1875,0.25 -0.0479,0.0676 -0.14371,0.17963 -0.1875,0.25 -0.0438,0.0704 -0.11675,0.17714 -0.15625,0.25 -0.0395,0.0729 -0.0899,0.20616 -0.125,0.28125 -0.0351,0.0751 -0.0945,0.20419 -0.125,0.28125 -0.0305,0.0771 -0.0679,0.23376 -0.0937,0.3125 -0.0259,0.0787 -0.0727,0.2011 -0.0937,0.28125 -0.0211,0.0802 -0.0775,0.23123 -0.0937,0.3125 -0.0163,0.0813 -0.0199,0.19915 -0.0312,0.28125 -0.0114,0.0821 -0.0248,0.22987 -0.0312,0.3125 -0.006,0.0826 -0.0298,0.22963 -0.0312,0.3125 -0.001,0.0829 -0.003,0.22969 0,0.3125 0.003,0.0828 0.0228,0.23005 0.0312,0.3125 0.008,0.0824 0.0179,0.2307 0.0312,0.3125 0.0133,0.0818 0.0443,0.20039 0.0625,0.28125 0.0182,0.0809 0.0708,0.23287 0.0937,0.3125 0.023,0.0796 0.066,0.20314 0.0937,0.28125 l 20.03125,56.34375 c 0.0179,0.0502 0.0427,0.13802 0.0625,0.1875 0.0198,0.0495 0.072,0.13882 0.0937,0.1875 0.0217,0.0487 0.0389,0.13969 0.0625,0.1875 0.0236,0.0478 0.0683,0.14063 0.0937,0.1875 0.0254,0.0469 0.0666,0.1104 0.0937,0.15625 0.0272,0.0459 0.0961,0.14273 0.125,0.1875 0.0289,0.0448 0.0631,0.11262 0.0937,0.15625 0.0306,0.0436 0.0927,0.11383 0.125,0.15625 0.0323,0.0424 0.0911,0.11511 0.125,0.15625 0.0339,0.0411 0.0895,0.11644 0.125,0.15625 0.0355,0.0398 0.088,0.0866 0.125,0.125 0.037,0.0384 0.11783,0.11929 0.15625,0.15625 0.0384,0.037 0.11644,0.0895 0.15625,0.125 0.0398,0.0355 0.0839,0.0911 0.125,0.125 0.0411,0.0339 0.11383,0.0927 0.15625,0.125 0.0424,0.0323 0.11262,0.0944 0.15625,0.125 0.0436,0.0306 0.14272,0.0961 0.1875,0.125 0.0448,0.0289 0.11039,0.0666 0.15625,0.0937 0.0459,0.0272 0.14063,0.0684 0.1875,0.0937 0.0469,0.0254 0.10844,0.0702 0.15625,0.0937 0.0478,0.0236 0.13882,0.072 0.1875,0.0937 0.0487,0.0217 0.13802,0.0427 0.1875,0.0625 0.0495,0.0198 0.13729,0.0758 0.1875,0.0937 0.0502,0.0179 0.13664,0.0465 0.1875,0.0625 0.0509,0.016 0.13606,0.0172 0.1875,0.0312 0.0514,0.014 0.13556,0.0505 0.1875,0.0625 0.0519,0.012 0.13514,0.0213 0.1875,0.0312 0.0524,0.01 0.16604,0.0233 0.21875,0.0312 0.0527,0.008 0.13452,0.0253 0.1875,0.0312 0.053,0.006 0.13433,0.0273 0.1875,0.0312 0.0532,0.004 0.16547,-0.002 0.21875,0 0.0533,0.002 0.13419,2e-4 0.1875,0 l 11.90625,0 c 0.0533,2e-4 0.13422,0.002 0.1875,0 0.0533,-0.002 0.16558,0.004 0.21875,0 0.0532,-0.004 0.13452,-0.0253 0.1875,-0.0312 0.053,-0.006 0.13479,-0.0233 0.1875,-0.0312 0.0527,-0.008 0.16639,-0.0213 0.21875,-0.0312 0.0524,-0.01 0.13556,-0.0192 0.1875,-0.0312 0.0519,-0.012 0.13606,-0.0485 0.1875,-0.0625 0.0514,-0.014 0.13664,-0.0153 0.1875,-0.0312 0.0509,-0.016 0.13729,-0.0446 0.1875,-0.0625 0.0502,-0.0179 0.13802,-0.0739 0.1875,-0.0937 0.0495,-0.0198 0.13882,-0.0408 0.1875,-0.0625 0.0487,-0.0217 0.13969,-0.0702 0.1875,-0.0937 0.0478,-0.0236 0.10938,-0.0684 0.15625,-0.0937 0.0469,-0.0254 0.14164,-0.0666 0.1875,-0.0937 0.0459,-0.0272 0.11147,-0.0648 0.15625,-0.0937 0.0448,-0.0289 0.14387,-0.0944 0.1875,-0.125 0.0436,-0.0306 0.11383,-0.0927 0.15625,-0.125 0.0424,-0.0323 0.11511,-0.0911 0.15625,-0.125 0.0411,-0.0339 0.0852,-0.0895 0.125,-0.125 0.0398,-0.0355 0.11783,-0.088 0.15625,-0.125 0.0384,-0.037 0.11928,-0.11784 0.15625,-0.15625 0.037,-0.0384 0.0895,-0.0852 0.125,-0.125 0.0355,-0.0398 0.0911,-0.11511 0.125,-0.15625 0.0339,-0.0411 0.0927,-0.11383 0.125,-0.15625 0.0323,-0.0424 0.0944,-0.11262 0.125,-0.15625 0.0306,-0.0436 0.0648,-0.11148 0.0937,-0.15625 0.0289,-0.0448 0.0978,-0.14165 0.125,-0.1875 0.0272,-0.0459 0.0683,-0.10938 0.0937,-0.15625 0.0254,-0.0469 0.0702,-0.13969 0.0937,-0.1875 0.0236,-0.0478 0.0408,-0.13882 0.0625,-0.1875 0.0217,-0.0487 0.0739,-0.13802 0.0937,-0.1875 0.0198,-0.0495 0.0446,-0.13729 0.0625,-0.1875 L 250.625,107.46875 c 0.0277,-0.0781 0.0708,-0.20162 0.0937,-0.28125 0.023,-0.0796 0.0756,-0.23164 0.0937,-0.3125 0.0182,-0.0809 0.0492,-0.19945 0.0625,-0.28125 0.0133,-0.0818 0.0228,-0.23005 0.0312,-0.3125 0.008,-0.0824 0.0278,-0.22969 0.0312,-0.3125 0.003,-0.0828 0.001,-0.22963 0,-0.3125 -0.001,-0.0829 -0.0248,-0.22987 -0.0312,-0.3125 -0.006,-0.0826 -0.0199,-0.2304 -0.0312,-0.3125 -0.0114,-0.0821 -0.015,-0.19998 -0.0312,-0.28125 -0.0163,-0.0813 -0.0727,-0.23235 -0.0937,-0.3125 -0.0211,-0.0802 -0.0679,-0.20251 -0.0937,-0.28125 -0.0259,-0.0787 -0.0632,-0.23544 -0.0937,-0.3125 -0.0305,-0.0771 -0.0899,-0.20616 -0.125,-0.28125 -0.0351,-0.0751 -0.0855,-0.20839 -0.125,-0.28125 -0.0395,-0.0729 -0.11246,-0.17963 -0.15625,-0.25 -0.0438,-0.0704 -0.13958,-0.18237 -0.1875,-0.25 -0.0479,-0.0676 -0.13563,-0.18536 -0.1875,-0.25 -0.0519,-0.0646 -0.13185,-0.18858 -0.1875,-0.25 -0.0557,-0.0614 -0.15953,-0.16077 -0.21875,-0.21875 -0.0592,-0.058 -0.15617,-0.16441 -0.21875,-0.21875 -0.0626,-0.0543 -0.18428,-0.137 -0.25,-0.1875 -0.0657,-0.0505 -0.18138,-0.14102 -0.25,-0.1875 -0.0686,-0.0465 -0.17872,-0.11396 -0.25,-0.15625 -0.0713,-0.0423 -0.20757,-0.1183 -0.28125,-0.15625 -0.0737,-0.0379 -0.20543,-0.0915 -0.28125,-0.125 -0.0758,-0.0335 -0.20357,-0.0961 -0.28125,-0.125 -0.0777,-0.0289 -0.20198,-0.0696 -0.28125,-0.0937 -0.0793,-0.0242 -0.23192,-0.0743 -0.3125,-0.0937 -0.0806,-0.0194 -0.23091,-0.048 -0.3125,-0.0625 -0.0816,-0.0145 -0.19893,-0.0216 -0.28125,-0.0312 -0.0823,-0.01 -0.22975,-0.0265 -0.3125,-0.0312 -0.0828,-0.005 -0.22962,-2.5e-4 -0.3125,0 l -9.625,0 c -0.0535,-7e-5 -0.13402,-0.002 -0.1875,0 -0.0535,0.002 -0.16539,-0.004 -0.21875,0 -0.0534,0.004 -0.13434,0.0251 -0.1875,0.0312 -0.0532,0.006 -0.13461,0.0231 -0.1875,0.0312 -0.0529,0.008 -0.16622,0.021 -0.21875,0.0312 -0.0525,0.0102 -0.1354,0.019 -0.1875,0.0312 -0.0521,0.0122 -0.13591,0.0483 -0.1875,0.0625 -0.0516,0.0142 -0.1365,0.0463 -0.1875,0.0625 -0.051,0.0162 -0.13716,0.0443 -0.1875,0.0625 -0.0503,0.0182 -0.1379,0.0424 -0.1875,0.0625 -0.0496,0.0201 -0.13872,0.0405 -0.1875,0.0625 -0.0488,0.022 -0.1396,0.0699 -0.1875,0.0937 -0.0479,0.0239 -0.14056,0.068 -0.1875,0.0937 -0.0469,0.0257 -0.11034,0.0662 -0.15625,0.0937 -0.0459,0.0275 -0.14268,0.0957 -0.1875,0.125 -0.0448,0.0293 -0.1126,0.0628 -0.15625,0.0937 -0.0437,0.031 -0.11383,0.0924 -0.15625,0.125 -0.0424,0.0326 -0.11512,0.0908 -0.15625,0.125 -0.0411,0.0342 -0.11647,0.0892 -0.15625,0.125 -0.0398,0.0358 -0.0866,0.11894 -0.125,0.15625 -0.0384,0.0373 -0.11935,0.0862 -0.15625,0.125 -0.0369,0.0388 -0.0896,0.11609 -0.125,0.15625 -0.0354,0.0402 -0.0912,0.11475 -0.125,0.15625 -0.0338,0.0415 -0.0928,0.11348 -0.125,0.15625 -0.0322,0.0428 -0.0945,0.11227 -0.125,0.15625 -0.0305,0.044 -0.0962,0.11112 -0.125,0.15625 -0.0288,0.0451 -0.0668,0.1413 -0.0937,0.1875 -0.027,0.0462 -0.0685,0.10904 -0.0937,0.15625 -0.0252,0.0472 -0.0704,0.13935 -0.0937,0.1875 -0.0234,0.0482 -0.0723,0.13848 -0.0937,0.1875 -0.0215,0.049 -0.0429,0.13769 -0.0625,0.1875 -0.0196,0.0498 -0.0449,0.13697 -0.0625,0.1875 l -11.5,33.1875 -11.46875,-33.1875 c -0.0176,-0.0505 -0.0429,-0.13769 -0.0625,-0.1875 -0.0196,-0.0498 -0.041,-0.13848 -0.0625,-0.1875 -0.0215,-0.049 -0.0704,-0.13935 -0.0937,-0.1875 -0.0234,-0.0482 -0.0685,-0.14029 -0.0937,-0.1875 -0.0252,-0.0472 -0.0668,-0.11005 -0.0937,-0.15625 -0.027,-0.0462 -0.065,-0.14237 -0.0937,-0.1875 -0.0288,-0.0451 -0.0945,-0.11227 -0.125,-0.15625 -0.0305,-0.044 -0.0928,-0.11348 -0.125,-0.15625 -0.0322,-0.0428 -0.0912,-0.11475 -0.125,-0.15625 -0.0338,-0.0415 -0.0896,-0.11609 -0.125,-0.15625 -0.0354,-0.0402 -0.0881,-0.11749 -0.125,-0.15625 -0.0369,-0.0388 -0.11788,-0.0877 -0.15625,-0.125 -0.0384,-0.0373 -0.0852,-0.12045 -0.125,-0.15625 -0.0398,-0.0358 -0.11512,-0.0908 -0.15625,-0.125 -0.0411,-0.0342 -0.11383,-0.0924 -0.15625,-0.125 -0.0424,-0.0326 -0.1126,-0.094 -0.15625,-0.125 -0.0437,-0.031 -0.11143,-0.0645 -0.15625,-0.0937 -0.0448,-0.0293 -0.14159,-0.0975 -0.1875,-0.125 -0.0459,-0.0275 -0.10931,-0.068 -0.15625,-0.0937 -0.0469,-0.0257 -0.1396,-0.0699 -0.1875,-0.0937 -0.0479,-0.0239 -0.13872,-0.0717 -0.1875,-0.0937 -0.0488,-0.022 -0.1379,-0.0424 -0.1875,-0.0625 -0.0496,-0.0201 -0.13716,-0.0443 -0.1875,-0.0625 -0.0503,-0.0182 -0.1365,-0.0463 -0.1875,-0.0625 -0.051,-0.0162 -0.13591,-0.0483 -0.1875,-0.0625 -0.0516,-0.0142 -0.1354,-0.0503 -0.1875,-0.0625 -0.0521,-0.0122 -0.13497,-0.021 -0.1875,-0.0312 -0.0525,-0.0102 -0.16586,-0.0231 -0.21875,-0.0312 -0.0529,-0.008 -0.13434,-0.0251 -0.1875,-0.0312 -0.0532,-0.006 -0.13414,-0.0272 -0.1875,-0.0312 -0.0534,-0.004 -0.16527,0.002 -0.21875,0 -0.0535,-0.002 -0.13398,-7e-5 -0.1875,0 l -9.625,0 c -0.0829,-2.5e-4 -0.22975,-0.005 -0.3125,0 z m -34.34375,16.8125 c 3.4284,4e-5 5.05842,0.76334 6.4375,2.34375 0.009,0.0186 0.0531,0.044 0.0625,0.0625 a 0.5051268,0.5051268 0 0 0 0.0625,0.125 c 0.70693,0.81348 1.28754,2.16901 1.75,3.8125 l -17.8125,0.0312 c 0.60287,-1.36635 1.32319,-2.58361 2.21875,-3.5 1.98203,-2.02811 3.94783,-2.87496 7.28125,-2.875 z"
       id="path3826"
       style="font-size:103.01726532000000702px;font-style:normal;font-variant:normal;font-weight:normal;font-stretch:normal;text-align:start;line-height:125%;letter-spacing:0px;word-spacing:0px;writing-mode:lr-tb;text-anchor:start;fill:#2e3436;fill-opacity:1;stroke:none;filter:url(#filter3832);font-family:DejaVu Sans Mono;-inkscape-font-specification:DejaVu Sans Mono;opacity:0.56164384"
       inkscape:original="M 5.21875 82.34375 A 4.6604015 4.6604015 0 0 0 0.5625 87 L 0.5625 95.53125 A 4.6604015 4.6604015 0 0 0 5.21875 100.1875 L 24.125 100.1875 L 24.125 162.09375 A 4.6604015 4.6604015 0 0 0 28.78125 166.75 L 39 166.75 A 4.6604015 4.6604015 0 0 0 43.65625 162.09375 L 43.65625 100.1875 L 62.5 100.1875 A 4.6604015 4.6604015 0 0 0 67.03125 96.625 L 67.03125 162.09375 A 4.6604015 4.6604015 0 0 0 71.6875 166.75 L 86.9375 166.75 C 99.225333 166.75 109.23034 163.37802 115.75 156.09375 C 122.25846 148.78173 125.09369 138.09563 125.09375 124.625 C 125.09369 111.09081 122.26291 100.37962 115.75 93.0625 C 109.2364 85.744894 99.233166 82.34383 86.9375 82.34375 L 71.6875 82.34375 A 4.6604015 4.6604015 0 0 0 67.09375 86.21875 A 4.6604015 4.6604015 0 0 0 62.5 82.34375 L 5.21875 82.34375 z M 159.53125 99.75 C 150.45404 99.750068 142.44264 102.98739 136.75 109.3125 C 131.05661 115.63854 128.31249 124.1447 128.3125 133.96875 C 128.31249 144.02503 131.11 152.64897 136.96875 158.90625 C 142.83801 165.13488 151.19528 168.21875 160.875 168.21875 C 164.30105 168.21875 167.78772 167.76407 171.3125 166.96875 L 171.3125 167 C 171.33432 166.99532 171.35317 166.97346 171.375 166.96875 C 174.94236 166.19981 178.61856 165.05678 182.34375 163.53125 A 4.6604015 4.6604015 0 0 0 185.21875 159.21875 L 185.21875 150.03125 A 4.6604015 4.6604015 0 0 0 178.40625 145.90625 C 174.968 147.70422 171.79124 149.0114 168.9375 149.84375 C 166.0861 150.67541 163.45903 151.06251 161 151.0625 C 156.05831 151.06251 153.02269 149.8036 150.78125 147.46875 C 149.25424 145.86139 148.21369 143.70456 147.6875 140.78125 L 182.71875 140.78125 A 4.6604015 4.6604015 0 0 0 187.375 136.125 L 187.375 131.625 C 187.37493 122.45314 185.03389 114.55678 180.03125 108.6875 C 180.02156 108.67608 180.00971 108.66765 180 108.65625 C 175.01448 102.80061 167.73863 99.750069 159.53125 99.75 z M 86.5625 100 L 86.75 100 C 94.568147 100.00006 98.848677 101.88315 101 104.59375 A 4.6604015 4.6604015 0 0 0 101.03125 104.625 C 103.14946 107.24661 105.06246 113.99415 105.0625 124.625 C 105.06246 135.12835 103.17167 141.84222 101.03125 144.53125 C 98.850288 147.23043 94.542107 149.09376 86.75 149.09375 L 86.5625 149.09375 L 86.5625 100 z M 193.78125 101.09375 A 4.6604015 4.6604015 0 0 0 189.375 107.3125 L 209.40625 163.65625 A 4.6604015 4.6604015 0 0 0 213.8125 166.75 L 225.71875 166.75 A 4.6604015 4.6604015 0 0 0 230.125 163.65625 L 250.15625 107.3125 A 4.6604015 4.6604015 0 0 0 245.75 101.09375 L 236.125 101.09375 A 4.6604015 4.6604015 0 0 0 231.71875 104.21875 L 219.75 138.75 L 207.8125 104.21875 A 4.6604015 4.6604015 0 0 0 203.40625 101.09375 L 193.78125 101.09375 z M 159.125 116.90625 C 162.71098 116.90629 164.55254 117.78562 166.03125 119.53125 A 4.6604015 4.6604015 0 0 0 166.0625 119.59375 C 166.95399 120.61961 167.6342 122.24388 168.125 124.25 L 148.8125 124.28125 C 149.48287 122.53647 150.35721 121.07489 151.46875 119.9375 C 153.52345 117.83503 155.70027 116.90629 159.125 116.90625 z "
       inkscape:radius="0.50507629"
       sodipodi:type="inkscape:offset" />
    <path
       sodipodi:type="inkscape:offset"
       inkscape:radius="0.50507629"
       inkscape:original="M 5.21875 82.34375 A 4.6604015 4.6604015 0 0 0 0.5625 87 L 0.5625 95.53125 A 4.6604015 4.6604015 0 0 0 5.21875 100.1875 L 24.125 100.1875 L 24.125 162.09375 A 4.6604015 4.6604015 0 0 0 28.78125 166.75 L 39 166.75 A 4.6604015 4.6604015 0 0 0 43.65625 162.09375 L 43.65625 100.1875 L 62.5 100.1875 A 4.6604015 4.6604015 0 0 0 67.03125 96.625 L 67.03125 162.09375 A 4.6604015 4.6604015 0 0 0 71.6875 166.75 L 86.9375 166.75 C 99.225333 166.75 109.23034 163.37802 115.75 156.09375 C 122.25846 148.78173 125.09369 138.09563 125.09375 124.625 C 125.09369 111.09081 122.26291 100.37962 115.75 93.0625 C 109.2364 85.744894 99.233166 82.34383 86.9375 82.34375 L 71.6875 82.34375 A 4.6604015 4.6604015 0 0 0 67.09375 86.21875 A 4.6604015 4.6604015 0 0 0 62.5 82.34375 L 5.21875 82.34375 z M 159.53125 99.75 C 150.45404 99.750068 142.44264 102.98739 136.75 109.3125 C 131.05661 115.63854 128.31249 124.1447 128.3125 133.96875 C 128.31249 144.02503 131.11 152.64897 136.96875 158.90625 C 142.83801 165.13488 151.19528 168.21875 160.875 168.21875 C 164.30105 168.21875 167.78772 167.76407 171.3125 166.96875 L 171.3125 167 C 171.33432 166.99532 171.35317 166.97346 171.375 166.96875 C 174.94236 166.19981 178.61856 165.05678 182.34375 163.53125 A 4.6604015 4.6604015 0 0 0 185.21875 159.21875 L 185.21875 150.03125 A 4.6604015 4.6604015 0 0 0 178.40625 145.90625 C 174.968 147.70422 171.79124 149.0114 168.9375 149.84375 C 166.0861 150.67541 163.45903 151.06251 161 151.0625 C 156.05831 151.06251 153.02269 149.8036 150.78125 147.46875 C 149.25424 145.86139 148.21369 143.70456 147.6875 140.78125 L 182.71875 140.78125 A 4.6604015 4.6604015 0 0 0 187.375 136.125 L 187.375 131.625 C 187.37493 122.45314 185.03389 114.55678 180.03125 108.6875 C 180.02156 108.67608 180.00971 108.66765 180 108.65625 C 175.01448 102.80061 167.73863 99.750069 159.53125 99.75 z M 86.5625 100 L 86.75 100 C 94.568147 100.00006 98.848677 101.88315 101 104.59375 A 4.6604015 4.6604015 0 0 0 101.03125 104.625 C 103.14946 107.24661 105.06246 113.99415 105.0625 124.625 C 105.06246 135.12835 103.17167 141.84222 101.03125 144.53125 C 98.850288 147.23043 94.542107 149.09376 86.75 149.09375 L 86.5625 149.09375 L 86.5625 100 z M 193.78125 101.09375 A 4.6604015 4.6604015 0 0 0 189.375 107.3125 L 209.40625 163.65625 A 4.6604015 4.6604015 0 0 0 213.8125 166.75 L 225.71875 166.75 A 4.6604015 4.6604015 0 0 0 230.125 163.65625 L 250.15625 107.3125 A 4.6604015 4.6604015 0 0 0 245.75 101.09375 L 236.125 101.09375 A 4.6604015 4.6604015 0 0 0 231.71875 104.21875 L 219.75 138.75 L 207.8125 104.21875 A 4.6604015 4.6604015 0 0 0 203.40625 101.09375 L 193.78125 101.09375 z M 159.125 116.90625 C 162.71098 116.90629 164.55254 117.78562 166.03125 119.53125 A 4.6604015 4.6604015 0 0 0 166.0625 119.59375 C 166.95399 120.61961 167.6342 122.24388 168.125 124.25 L 148.8125 124.28125 C 149.48287 122.53647 150.35721 121.07489 151.46875 119.9375 C 153.52345 117.83503 155.70027 116.90629 159.125 116.90625 z "
       style="font-size:103.01726532000000702px;font-style:normal;font-variant:normal;font-weight:normal;font-stretch:normal;text-align:start;line-height:125%;letter-spacing:0px;word-spacing:0px;writing-mode:lr-tb;text-anchor:start;fill:#d03d00;fill-opacity:1;stroke:none;font-family:DejaVu Sans Mono;-inkscape-font-specification:DejaVu Sans Mono"
       id="path3006"
       d="m 4.96875,81.84375 c -0.25,0.03125 -1,0.125 -0.75,0.09375 -0.083333,0.02083 -0.4166667,0.104167 -0.5,0.125 0.6008578,-0.24113 -3.4968027,1.360547 -0.46875,0.15625 -0.2238858,0.126249 -0.9009794,0.489538 -0.6875,0.34375 0.6571095,-0.489073 -3.53258612,2.584139 -0.40625,0.28125 -0.2305397,0.12778 -0.8071971,0.650053 -0.59375,0.5 -0.052083,0.0625 -0.28125,0.3125 -0.34375,0.375 C 1.6657517,83.066537 -1.2232463,87.216003 0.9375,84.125 0.78408373,84.325639 0.47896059,85.021316 0.5625,84.78125 1.6661589,82.506987 -4.17081,94.464236 0.375,85.25 0.26669986,85.488843 0.08905217,86.251695 0.15625,86 0.125,86.25 0.03125,87 0.0625,86.75 c -0.003389,0.06783 6.047e-5,0.182086 0,0.25 l 0,8.53125 c 6.047e-5,0.06791 -0.003389,0.18217 0,0.25 0.003389,0.06783 0.02454058,0.182418 0.03125,0.25 0.0067094,0.06758 0.02123631,0.182828 0.03125,0.25 0.0100137,0.06717 0.0179561,0.1834 0.03125,0.25 0.0132939,0.0666 0.0459578,0.184131 0.0625,0.25 0.0165422,0.06587 0.0427494,0.185021 0.0625,0.25 0.0197506,0.06498 0.0708383,0.186067 0.09375,0.25 0.0229117,0.06393 0.0364824,0.156017 0.0625,0.21875 0.0260176,0.06273 0.095939,0.188618 0.125,0.25 0.029061,0.06138 0.0617154,0.158866 0.09375,0.21875 0.0320346,0.05988 0.0900689,0.160508 0.125,0.21875 0.0349311,0.05824 0.11850629,0.16229 0.15625,0.21875 0.0377437,0.05646 0.0845344,0.132958 0.125,0.1875 0.040466,0.05454 0.1131598,0.166256 0.15625,0.21875 0.04309,0.05249 0.1418888,0.137181 0.1875,0.1875 0.045611,0.05032 0.1082274,0.139477 0.15625,0.1875 0.048023,0.04802 0.1371814,0.110639 0.1875,0.15625 0.050319,0.04561 0.1350064,0.14441 0.1875,0.1875 0.052494,0.04309 0.1642075,0.115784 0.21875,0.15625 0.054543,0.04047 0.1310398,0.08726 0.1875,0.125 0.05646,0.03774 0.1605077,0.121319 0.21875,0.15625 0.058242,0.03493 0.1588657,0.09297 0.21875,0.125 0.059884,0.032 0.1573675,0.0647 0.21875,0.0937 0.061383,0.0291 0.187267,0.099 0.25,0.125 0.062733,0.026 0.1548172,0.0396 0.21875,0.0625 0.063933,0.0229 0.1850211,0.074 0.25,0.0937 0.064979,0.0198 0.1841312,0.046 0.25,0.0625 0.065869,0.0165 0.1833995,0.0492 0.25,0.0625 0.0666,0.0133 0.182828,0.0212 0.25,0.0312 0.067172,0.01 0.182418,0.0245 0.25,0.0312 0.067582,0.007 0.1821703,0.0279 0.25,0.0312 0.06783,0.003 0.1820858,-6e-5 0.25,0 l 18.40625,0 0,61.40625 c 6e-5,0.0679 -0.0034,0.18217 0,0.25 0.0034,0.0678 0.02454,0.18242 0.03125,0.25 0.0067,0.0676 0.02124,0.18283 0.03125,0.25 0.01001,0.0672 0.01796,0.1834 0.03125,0.25 0.01329,0.0666 0.04596,0.18413 0.0625,0.25 0.01654,0.0659 0.04275,0.18502 0.0625,0.25 0.01975,0.065 0.07084,0.18607 0.09375,0.25 0.02291,0.0639 0.03648,0.15602 0.0625,0.21875 0.02602,0.0627 0.09594,0.18862 0.125,0.25 0.02906,0.0614 0.06171,0.15887 0.09375,0.21875 0.03204,0.0599 0.09007,0.16051 0.125,0.21875 0.03493,0.0582 0.118506,0.16229 0.15625,0.21875 0.03774,0.0565 0.08453,0.13296 0.125,0.1875 0.04047,0.0545 0.11316,0.16626 0.15625,0.21875 0.04309,0.0525 0.141889,0.13718 0.1875,0.1875 0.04561,0.0503 0.108227,0.13948 0.15625,0.1875 0.04802,0.048 0.137181,0.11064 0.1875,0.15625 0.05032,0.0456 0.135006,0.14441 0.1875,0.1875 0.05249,0.0431 0.164208,0.11578 0.21875,0.15625 0.05454,0.0405 0.13104,0.0873 0.1875,0.125 0.05646,0.0377 0.160508,0.12132 0.21875,0.15625 0.05824,0.0349 0.158866,0.093 0.21875,0.125 0.05988,0.032 0.157368,0.0647 0.21875,0.0937 0.06138,0.0291 0.187267,0.099 0.25,0.125 0.06273,0.026 0.154817,0.0396 0.21875,0.0625 0.06393,0.0229 0.185021,0.074 0.25,0.0937 0.06498,0.0197 0.184131,0.046 0.25,0.0625 0.06587,0.0165 0.1834,0.0492 0.25,0.0625 0.0666,0.0133 0.182828,0.0212 0.25,0.0312 0.06717,0.01 0.182418,0.0245 0.25,0.0312 0.06758,0.007 0.18217,0.0279 0.25,0.0312 0.06783,0.003 0.182086,-6e-5 0.25,0 L 39,167.25 c 0.06791,-6e-5 0.18217,0.003 0.25,0 0.06783,-0.003 0.182418,-0.0245 0.25,-0.0312 0.06758,-0.007 0.182828,-0.0212 0.25,-0.0312 0.06717,-0.01 0.1834,-0.018 0.25,-0.0312 0.0666,-0.0133 0.184131,-0.046 0.25,-0.0625 0.06587,-0.0165 0.185021,-0.0428 0.25,-0.0625 0.06498,-0.0197 0.186067,-0.0708 0.25,-0.0937 0.06393,-0.0229 0.156017,-0.0365 0.21875,-0.0625 0.06273,-0.026 0.188618,-0.0959 0.25,-0.125 0.06138,-0.0291 0.158866,-0.0617 0.21875,-0.0937 0.05988,-0.032 0.160508,-0.0901 0.21875,-0.125 0.05824,-0.0349 0.16229,-0.11851 0.21875,-0.15625 0.05646,-0.0377 0.132958,-0.0845 0.1875,-0.125 0.05454,-0.0405 0.166256,-0.11316 0.21875,-0.15625 0.05249,-0.0431 0.137181,-0.14189 0.1875,-0.1875 0.05032,-0.0456 0.139477,-0.10823 0.1875,-0.15625 0.04802,-0.048 0.110639,-0.13718 0.15625,-0.1875 0.04561,-0.0503 0.14441,-0.13501 0.1875,-0.1875 0.04309,-0.0525 0.115784,-0.16421 0.15625,-0.21875 0.04047,-0.0545 0.08726,-0.13104 0.125,-0.1875 0.03774,-0.0565 0.121319,-0.16051 0.15625,-0.21875 0.03493,-0.0582 0.09296,-0.15887 0.125,-0.21875 0.03204,-0.0599 0.06469,-0.15737 0.09375,-0.21875 0.02906,-0.0614 0.09898,-0.18727 0.125,-0.25 0.02602,-0.0627 0.03959,-0.15482 0.0625,-0.21875 0.02291,-0.0639 0.074,-0.18502 0.09375,-0.25 0.01975,-0.065 0.04596,-0.18413 0.0625,-0.25 0.01654,-0.0659 0.04921,-0.1834 0.0625,-0.25 0.01329,-0.0666 0.02124,-0.18283 0.03125,-0.25 0.01001,-0.0672 0.02454,-0.18242 0.03125,-0.25 0.0067,-0.0676 0.02786,-0.18217 0.03125,-0.25 0.0034,-0.0678 -6e-5,-0.18209 0,-0.25 l 0,-61.40625 18.34375,0 c 0.05772,2e-5 0.161083,0.002 0.21875,0 0.05767,-0.002 0.161232,0.005 0.21875,0 0.05752,-0.005 0.161481,-0.0241 0.21875,-0.0312 0.05727,-0.007 0.130579,-0.0217 0.1875,-0.0312 0.05692,-0.01 0.162277,-0.0193 0.21875,-0.0312 0.05647,-0.0119 0.162822,-0.0482 0.21875,-0.0625 0.05593,-0.0143 0.163464,-0.0459 0.21875,-0.0625 0.05529,-0.0166 0.132953,-0.0436 0.1875,-0.0625 0.05455,-0.0189 0.165036,-0.0414 0.21875,-0.0625 0.05371,-0.0211 0.134712,-0.0704 0.1875,-0.0937 0.05279,-0.0233 0.13573,-0.0682 0.1875,-0.0937 0.05177,-0.0255 0.136838,-0.0661 0.1875,-0.0937 0.05066,-0.0276 0.138034,-0.06401 0.1875,-0.09375 0.04947,-0.02974 0.139316,-0.09323 0.1875,-0.125 0.04818,-0.03177 0.140681,-0.09125 0.1875,-0.125 0.04682,-0.03375 0.110877,-0.08933 0.15625,-0.125 0.04537,-0.03567 0.143653,-0.118719 0.1875,-0.15625 0.04385,-0.03753 0.114004,-0.08567 0.15625,-0.125 0.04225,-0.03933 0.115679,-0.115199 0.15625,-0.15625 0.04057,-0.04105 0.08617,-0.113545 0.125,-0.15625 0.03883,-0.0427 0.119237,-0.111964 0.15625,-0.15625 0.01851,-0.02214 0.03788,-0.06301 0.0625,-0.09375 l 0,63.34375 c 6e-5,0.0679 -0.0034,0.18217 0,0.25 0.0034,0.0678 0.02454,0.18242 0.03125,0.25 0.0067,0.0676 0.02124,0.18283 0.03125,0.25 0.01001,0.0672 0.01796,0.1834 0.03125,0.25 0.01329,0.0666 0.04596,0.18413 0.0625,0.25 0.01654,0.0659 0.04275,0.18502 0.0625,0.25 0.01975,0.065 0.07084,0.18607 0.09375,0.25 0.02291,0.0639 0.03648,0.15602 0.0625,0.21875 0.02602,0.0627 0.09594,0.18862 0.125,0.25 0.02906,0.0614 0.06172,0.15887 0.09375,0.21875 0.03203,0.0599 0.09007,0.16051 0.125,0.21875 0.03493,0.0582 0.118506,0.16229 0.15625,0.21875 0.03774,0.0565 0.08453,0.13296 0.125,0.1875 0.04047,0.0545 0.11316,0.16626 0.15625,0.21875 0.04309,0.0525 0.141889,0.13718 0.1875,0.1875 0.04561,0.0503 0.108227,0.13948 0.15625,0.1875 0.04802,0.048 0.137181,0.11064 0.1875,0.15625 0.05032,0.0456 0.135006,0.14441 0.1875,0.1875 0.05249,0.0431 0.164208,0.11578 0.21875,0.15625 0.05454,0.0405 0.13104,0.0873 0.1875,0.125 0.05646,0.0377 0.160508,0.12132 0.21875,0.15625 0.05824,0.0349 0.158866,0.093 0.21875,0.125 0.05988,0.032 0.157368,0.0647 0.21875,0.0937 0.06138,0.0291 0.187267,0.099 0.25,0.125 0.06273,0.026 0.154817,0.0396 0.21875,0.0625 0.06393,0.0229 0.185021,0.074 0.25,0.0937 0.06498,0.0197 0.184131,0.046 0.25,0.0625 0.06587,0.0165 0.1834,0.0492 0.25,0.0625 0.0666,0.0133 0.182828,0.0212 0.25,0.0312 0.06717,0.01 0.182418,0.0245 0.25,0.0312 0.06758,0.007 0.18217,0.0279 0.25,0.0312 0.06783,0.003 0.182086,-6e-5 0.25,0 l 15.25,0 c 12.380234,0 22.54825,-3.39461 29.1875,-10.8125 6.62251,-7.44015 9.46869,-18.271 9.46875,-31.8125 -6e-5,-13.60462 -2.84141,-24.46057 -9.46875,-31.90625 -6.63267,-7.451379 -16.798697,-10.874919 -29.1875,-10.875 l -15.25,0 c -0.06066,0 -0.158146,-0.0027 -0.21875,0 -0.0606,0.0027 -0.158321,-0.0053 -0.21875,0 -0.06043,0.0053 -0.189861,0.0233 -0.25,0.03125 -0.06014,0.0079 -0.159017,0.02068 -0.21875,0.03125 -0.05973,0.01057 -0.159537,0.04932 -0.21875,0.0625 -0.05921,0.01318 -0.160171,0.04674 -0.21875,0.0625 -0.05858,0.01576 -0.160917,0.04419 -0.21875,0.0625 -0.05783,0.01831 -0.161774,0.04168 -0.21875,0.0625 -0.05698,0.02082 -0.13149,0.07045 -0.1875,0.09375 -0.05601,0.0233 -0.163813,0.03677 -0.21875,0.0625 -0.05494,0.02573 -0.164992,0.09689 -0.21875,0.125 -0.05376,0.02811 -0.135025,0.06332 -0.1875,0.09375 -0.05248,0.03043 -0.136407,0.0923 -0.1875,0.125 -0.05109,0.0327 -0.137888,0.09009 -0.1875,0.125 -0.04961,0.03491 -0.139464,0.08795 -0.1875,0.125 -0.04804,0.03705 -0.141132,0.117137 -0.1875,0.15625 -0.04637,0.03911 -0.111639,0.115144 -0.15625,0.15625 -0.04461,0.04111 -0.113481,0.11323 -0.15625,0.15625 -0.04277,0.04302 -0.115406,0.111399 -0.15625,0.15625 -0.04084,0.04485 -0.117408,0.109654 -0.15625,0.15625 -0.03884,0.0466 -0.08824,0.139248 -0.125,0.1875 -0.03676,0.04825 -0.121634,0.137685 -0.15625,0.1875 -0.03462,0.04981 -0.0926,0.136217 -0.125,0.1875 -0.0324,0.05128 -0.06362,0.134847 -0.09375,0.1875 -0.03013,0.05265 -0.09721,0.133579 -0.125,0.1875 -0.02779,-0.05392 -0.09487,-0.134847 -0.125,-0.1875 -0.03013,-0.05265 -0.06135,-0.136217 -0.09375,-0.1875 -0.0324,-0.05128 -0.09038,-0.137685 -0.125,-0.1875 -0.03462,-0.04981 -0.119486,-0.139248 -0.15625,-0.1875 -0.03676,-0.04825 -0.08616,-0.140904 -0.125,-0.1875 -0.03884,-0.0466 -0.115406,-0.111399 -0.15625,-0.15625 C 66.271656,83.486399 66.199019,83.41802 66.15625,83.375 66.113481,83.33198 66.044611,83.259856 66,83.21875 c -0.04461,-0.04111 -0.109882,-0.117137 -0.15625,-0.15625 -0.04637,-0.03911 -0.139464,-0.119204 -0.1875,-0.15625 -0.04804,-0.03705 -0.137888,-0.09009 -0.1875,-0.125 -0.04961,-0.03491 -0.136407,-0.0923 -0.1875,-0.125 -0.05109,-0.0327 -0.135025,-0.09457 -0.1875,-0.125 -0.05248,-0.03043 -0.133742,-0.06564 -0.1875,-0.09375 -0.05376,-0.02811 -0.163813,-0.09927 -0.21875,-0.125 -0.05494,-0.02573 -0.16274,-0.0392 -0.21875,-0.0625 -0.05601,-0.0233 -0.130524,-0.07293 -0.1875,-0.09375 -0.05698,-0.02082 -0.160917,-0.04419 -0.21875,-0.0625 -0.05783,-0.01831 -0.160171,-0.04674 -0.21875,-0.0625 -0.05858,-0.01576 -0.159537,-0.04932 -0.21875,-0.0625 -0.05921,-0.01318 -0.159017,-0.05193 -0.21875,-0.0625 -0.05973,-0.01057 -0.158611,-0.0233 -0.21875,-0.03125 -0.06014,-0.0079 -0.189571,-0.02594 -0.25,-0.03125 -0.06043,-0.0053 -0.158146,0.0027 -0.21875,0 -0.0606,-0.0027 -0.158088,0 -0.21875,0 l -57.28125,0 c -0.067914,6e-5 -0.1821703,-0.0034 -0.25,0 z M 159.53125,99.25 c -9.1973,6.9e-5 -17.36331,3.2822 -23.15625,9.71875 -5.79001,6.4334 -8.56251,15.0819 -8.5625,25 -1e-5,10.14995 2.81908,18.91351 8.78125,25.28125 5.97631,6.34223 14.49425,9.46875 24.28125,9.46875 3.38979,0 6.84257,-0.45111 10.3125,-1.21875 0.0405,-0.009 0.0845,0.009 0.125,0 a 0.5051268,0.5051268 0 0 0 0.0937,0 c 0.024,-0.005 0.0122,-0.0252 0.0312,-0.0312 0.0133,-0.004 0.0202,0.004 0.0312,0 0.0111,-0.004 0.0222,0.004 0.0312,0 3.58922,-0.77554 7.29012,-1.93669 11.03125,-3.46875 0.0471,-0.0196 0.1411,-0.0725 0.1875,-0.0937 0.0464,-0.0213 0.11067,-0.0395 0.15625,-0.0625 0.0456,-0.023 0.14279,-0.0691 0.1875,-0.0937 0.0447,-0.0246 0.11248,-0.0675 0.15625,-0.0937 0.0438,-0.0263 0.11348,-0.0659 0.15625,-0.0937 0.0428,-0.0279 0.11454,-0.0956 0.15625,-0.125 0.0417,-0.0294 0.11565,-0.0628 0.15625,-0.0937 0.0406,-0.0309 0.11682,-0.0926 0.15625,-0.125 0.0394,-0.0324 0.0868,-0.0912 0.125,-0.125 0.0382,-0.0338 0.11931,-0.0898 0.15625,-0.125 0.0369,-0.0352 0.0894,-0.0884 0.125,-0.125 0.0356,-0.0366 0.0908,-0.1184 0.125,-0.15625 0.0342,-0.0378 0.0922,-0.0859 0.125,-0.125 0.0328,-0.0391 0.0936,-0.11598 0.125,-0.15625 0.0314,-0.0403 0.0951,-0.11485 0.125,-0.15625 0.0299,-0.0414 0.0654,-0.11378 0.0937,-0.15625 0.0283,-0.0425 0.0983,-0.11276 0.125,-0.15625 0.0267,-0.0435 0.0686,-0.11181 0.0937,-0.15625 0.0251,-0.0444 0.0703,-0.14216 0.0937,-0.1875 0.0235,-0.0453 0.0407,-0.11008 0.0625,-0.15625 0.0218,-0.0462 0.0737,-0.14056 0.0937,-0.1875 0.02,-0.0469 0.0442,-0.1086 0.0625,-0.15625 0.0183,-0.0477 0.046,-0.13921 0.0625,-0.1875 0.0165,-0.0483 0.0478,-0.13863 0.0625,-0.1875 0.0147,-0.0489 0.0496,-0.13812 0.0625,-0.1875 0.0129,-0.0494 0.0201,-0.13768 0.0312,-0.1875 0.0111,-0.0498 0.022,-0.1373 0.0312,-0.1875 0.009,-0.0502 0.0238,-0.137 0.0312,-0.1875 0.007,-0.0505 0.0257,-0.13676 0.0312,-0.1875 0.006,-0.0507 0.0276,-0.13659 0.0312,-0.1875 0.004,-0.0509 -0.002,-0.13649 0,-0.1875 0.002,-0.051 8e-5,-0.13645 0,-0.1875 l 0,-9.1875 c -1.7e-4,-0.0887 0.006,-0.25526 0,-0.34375 -0.006,-0.0885 -0.0198,-0.22456 -0.0312,-0.3125 -0.0115,-0.0879 -0.0454,-0.25673 -0.0625,-0.34375 -0.0171,-0.087 -0.0399,-0.22675 -0.0625,-0.3125 -0.0226,-0.0857 -0.0657,-0.22837 -0.0937,-0.3125 -0.0281,-0.0841 -0.0916,-0.23034 -0.125,-0.3125 -0.0334,-0.0822 -0.0864,-0.23264 -0.125,-0.3125 -0.0386,-0.0799 -0.11264,-0.20403 -0.15625,-0.28125 -0.0436,-0.0772 -0.13904,-0.20698 -0.1875,-0.28125 -0.0485,-0.0743 -0.13438,-0.21023 -0.1875,-0.28125 -0.0531,-0.071 -0.12995,-0.18252 -0.1875,-0.25 -0.0575,-0.0675 -0.157,-0.18634 -0.21875,-0.25 -0.0617,-0.0637 -0.1843,-0.15918 -0.25,-0.21875 -0.0657,-0.0596 -0.18062,-0.1635 -0.25,-0.21875 -0.0694,-0.0553 -0.20848,-0.1368 -0.28125,-0.1875 -0.0728,-0.0507 -0.20539,-0.14156 -0.28125,-0.1875 -0.0759,-0.0459 -0.2026,-0.11526 -0.28125,-0.15625 -0.0787,-0.041 -0.20014,-0.12038 -0.28125,-0.15625 -0.0811,-0.0359 -0.22926,-0.0944 -0.3125,-0.125 -0.0832,-0.0306 -0.22747,-0.0685 -0.3125,-0.0937 -0.085,-0.0252 -0.22603,-0.074 -0.3125,-0.0937 -0.0865,-0.0197 -0.2562,-0.0483 -0.34375,-0.0625 -0.0875,-0.0142 -0.22422,-0.0227 -0.3125,-0.0312 -0.0883,-0.009 -0.25511,-0.0284 -0.34375,-0.0312 -0.0886,-0.003 -0.22386,-0.003 -0.3125,0 -0.0886,0.003 -0.25547,0.0228 -0.34375,0.0312 -0.0883,0.008 -0.22494,0.0171 -0.3125,0.0312 -0.0876,0.0141 -0.25728,0.0428 -0.34375,0.0625 -0.0865,0.0197 -0.22746,0.0686 -0.3125,0.0937 -0.085,0.0252 -0.22925,0.0632 -0.3125,0.0937 -0.0832,0.0306 -0.23138,0.0892 -0.3125,0.125 -0.0811,0.0358 -0.20259,0.1153 -0.28125,0.15625 -3.41412,1.78535 -6.59224,3.05424 -9.40625,3.875 -2.81179,0.82011 -5.37523,1.21876 -7.78125,1.21875 -4.85591,1e-5 -7.69727,-1.20157 -9.84375,-3.4375 -1.34344,-1.41413 -2.3021,-3.31075 -2.84375,-5.84375 l 34.40625,0 c 0.0679,-6e-5 0.18217,0.003 0.25,0 0.0678,-0.003 0.18242,-0.0245 0.25,-0.0312 0.0676,-0.007 0.18283,-0.0212 0.25,-0.0312 0.0672,-0.01 0.1834,-0.018 0.25,-0.0312 0.0666,-0.0133 0.18413,-0.046 0.25,-0.0625 0.0659,-0.0165 0.18502,-0.0428 0.25,-0.0625 0.065,-0.0197 0.18607,-0.0708 0.25,-0.0937 0.0639,-0.0229 0.15602,-0.0365 0.21875,-0.0625 0.0627,-0.026 0.18862,-0.0959 0.25,-0.125 0.0614,-0.0291 0.15887,-0.0617 0.21875,-0.0937 0.0599,-0.032 0.16051,-0.0901 0.21875,-0.125 0.0582,-0.0349 0.16229,-0.11851 0.21875,-0.15625 0.0565,-0.0377 0.13296,-0.0845 0.1875,-0.125 0.0545,-0.0405 0.16626,-0.11316 0.21875,-0.15625 0.0525,-0.0431 0.13718,-0.14189 0.1875,-0.1875 0.0503,-0.0456 0.13948,-0.10823 0.1875,-0.15625 0.048,-0.048 0.11064,-0.13718 0.15625,-0.1875 0.0456,-0.0503 0.14441,-0.13501 0.1875,-0.1875 0.0431,-0.0525 0.11578,-0.16421 0.15625,-0.21875 0.0405,-0.0545 0.0873,-0.13104 0.125,-0.1875 0.0377,-0.0565 0.12132,-0.16051 0.15625,-0.21875 0.0349,-0.0582 0.093,-0.15887 0.125,-0.21875 0.032,-0.0599 0.0647,-0.15737 0.0937,-0.21875 0.0291,-0.0614 0.099,-0.18727 0.125,-0.25 0.026,-0.0627 0.0396,-0.15482 0.0625,-0.21875 0.0229,-0.0639 0.074,-0.18502 0.0937,-0.25 0.0197,-0.065 0.046,-0.18413 0.0625,-0.25 0.0165,-0.0659 0.0492,-0.1834 0.0625,-0.25 0.0133,-0.0666 0.0212,-0.18283 0.0312,-0.25 0.01,-0.0672 0.0245,-0.18242 0.0312,-0.25 0.007,-0.0676 0.0279,-0.18217 0.0312,-0.25 0.003,-0.0678 -6e-5,-0.18209 0,-0.25 l 0,-4.5 c -7e-5,-9.2578 -2.3715,-17.26972 -7.46875,-23.25 -0.0618,-0.0728 -0.0734,-0.0807 -0.0312,-0.0312 -5.08663,-5.9744 -12.51122,-9.09368 -20.84375,-9.09375 z m -72.46875,1.28125 c 7.511074,0.0554 11.54259,1.86935 13.53125,4.375 a 0.5051268,0.5051268 0 0 0 0.0312,0.0312 c 1.94538,2.40771 3.93746,9.11724 3.9375,19.6875 -4e-5,10.44274 -1.96193,17.11183 -3.9375,19.59375 -2.016736,2.49593 -6.07618,4.28865 -13.5625,4.34375 l 0,-48.03125 z m 106.40625,0.0625 c -0.0828,0.005 -0.23018,0.0216 -0.3125,0.0312 -0.0823,0.01 -0.19966,0.0167 -0.28125,0.0312 -0.0816,0.0145 -0.23192,0.0431 -0.3125,0.0625 -0.0806,0.0194 -0.23323,0.0696 -0.3125,0.0937 -0.0793,0.0242 -0.20357,0.0649 -0.28125,0.0937 -0.0777,0.0289 -0.20543,0.0915 -0.28125,0.125 -0.0758,0.0335 -0.20757,0.0871 -0.28125,0.125 -0.0737,0.0379 -0.20997,0.11396 -0.28125,0.15625 -0.0713,0.0423 -0.18138,0.10977 -0.25,0.15625 -0.0686,0.0465 -0.18428,0.137 -0.25,0.1875 -0.0657,0.0505 -0.18742,0.13316 -0.25,0.1875 -0.0626,0.0543 -0.15953,0.16077 -0.21875,0.21875 -0.0592,0.058 -0.1631,0.15733 -0.21875,0.21875 -0.0557,0.0614 -0.13563,0.18536 -0.1875,0.25 -0.0519,0.0646 -0.13958,0.18237 -0.1875,0.25 -0.0479,0.0676 -0.14371,0.17963 -0.1875,0.25 -0.0438,0.0704 -0.11675,0.17714 -0.15625,0.25 -0.0395,0.0729 -0.0899,0.20616 -0.125,0.28125 -0.0351,0.0751 -0.0945,0.20419 -0.125,0.28125 -0.0305,0.0771 -0.0679,0.23376 -0.0937,0.3125 -0.0259,0.0787 -0.0727,0.2011 -0.0937,0.28125 -0.0211,0.0802 -0.0775,0.23123 -0.0937,0.3125 -0.0163,0.0813 -0.0199,0.19915 -0.0312,0.28125 -0.0114,0.0821 -0.0248,0.22987 -0.0312,0.3125 -0.006,0.0826 -0.0298,0.22963 -0.0312,0.3125 -0.001,0.0829 -0.003,0.22969 0,0.3125 0.003,0.0828 0.0228,0.23005 0.0312,0.3125 0.008,0.0824 0.0179,0.2307 0.0312,0.3125 0.0133,0.0818 0.0443,0.20039 0.0625,0.28125 0.0182,0.0809 0.0708,0.23287 0.0937,0.3125 0.023,0.0796 0.066,0.20314 0.0937,0.28125 l 20.03125,56.34375 c 0.0179,0.0502 0.0427,0.13802 0.0625,0.1875 0.0198,0.0495 0.072,0.13882 0.0937,0.1875 0.0217,0.0487 0.0389,0.13969 0.0625,0.1875 0.0236,0.0478 0.0683,0.14063 0.0937,0.1875 0.0254,0.0469 0.0666,0.1104 0.0937,0.15625 0.0272,0.0459 0.0961,0.14273 0.125,0.1875 0.0289,0.0448 0.0631,0.11262 0.0937,0.15625 0.0306,0.0436 0.0927,0.11383 0.125,0.15625 0.0323,0.0424 0.0911,0.11511 0.125,0.15625 0.0339,0.0411 0.0895,0.11644 0.125,0.15625 0.0355,0.0398 0.088,0.0866 0.125,0.125 0.037,0.0384 0.11783,0.11929 0.15625,0.15625 0.0384,0.037 0.11644,0.0895 0.15625,0.125 0.0398,0.0355 0.0839,0.0911 0.125,0.125 0.0411,0.0339 0.11383,0.0927 0.15625,0.125 0.0424,0.0323 0.11262,0.0944 0.15625,0.125 0.0436,0.0306 0.14272,0.0961 0.1875,0.125 0.0448,0.0289 0.11039,0.0666 0.15625,0.0937 0.0459,0.0272 0.14063,0.0684 0.1875,0.0937 0.0469,0.0254 0.10844,0.0702 0.15625,0.0937 0.0478,0.0236 0.13882,0.072 0.1875,0.0937 0.0487,0.0217 0.13802,0.0427 0.1875,0.0625 0.0495,0.0198 0.13729,0.0758 0.1875,0.0937 0.0502,0.0179 0.13664,0.0465 0.1875,0.0625 0.0509,0.016 0.13606,0.0172 0.1875,0.0312 0.0514,0.014 0.13556,0.0505 0.1875,0.0625 0.0519,0.012 0.13514,0.0213 0.1875,0.0312 0.0524,0.01 0.16604,0.0233 0.21875,0.0312 0.0527,0.008 0.13452,0.0253 0.1875,0.0312 0.053,0.006 0.13433,0.0273 0.1875,0.0312 0.0532,0.004 0.16547,-0.002 0.21875,0 0.0533,0.002 0.13419,2e-4 0.1875,0 l 11.90625,0 c 0.0533,2e-4 0.13422,0.002 0.1875,0 0.0533,-0.002 0.16558,0.004 0.21875,0 0.0532,-0.004 0.13452,-0.0253 0.1875,-0.0312 0.053,-0.006 0.13479,-0.0233 0.1875,-0.0312 0.0527,-0.008 0.16639,-0.0213 0.21875,-0.0312 0.0524,-0.01 0.13556,-0.0192 0.1875,-0.0312 0.0519,-0.012 0.13606,-0.0485 0.1875,-0.0625 0.0514,-0.014 0.13664,-0.0153 0.1875,-0.0312 0.0509,-0.016 0.13729,-0.0446 0.1875,-0.0625 0.0502,-0.0179 0.13802,-0.0739 0.1875,-0.0937 0.0495,-0.0198 0.13882,-0.0408 0.1875,-0.0625 0.0487,-0.0217 0.13969,-0.0702 0.1875,-0.0937 0.0478,-0.0236 0.10938,-0.0684 0.15625,-0.0937 0.0469,-0.0254 0.14164,-0.0666 0.1875,-0.0937 0.0459,-0.0272 0.11147,-0.0648 0.15625,-0.0937 0.0448,-0.0289 0.14387,-0.0944 0.1875,-0.125 0.0436,-0.0306 0.11383,-0.0927 0.15625,-0.125 0.0424,-0.0323 0.11511,-0.0911 0.15625,-0.125 0.0411,-0.0339 0.0852,-0.0895 0.125,-0.125 0.0398,-0.0355 0.11783,-0.088 0.15625,-0.125 0.0384,-0.037 0.11928,-0.11784 0.15625,-0.15625 0.037,-0.0384 0.0895,-0.0852 0.125,-0.125 0.0355,-0.0398 0.0911,-0.11511 0.125,-0.15625 0.0339,-0.0411 0.0927,-0.11383 0.125,-0.15625 0.0323,-0.0424 0.0944,-0.11262 0.125,-0.15625 0.0306,-0.0436 0.0648,-0.11148 0.0937,-0.15625 0.0289,-0.0448 0.0978,-0.14165 0.125,-0.1875 0.0272,-0.0459 0.0683,-0.10938 0.0937,-0.15625 0.0254,-0.0469 0.0702,-0.13969 0.0937,-0.1875 0.0236,-0.0478 0.0408,-0.13882 0.0625,-0.1875 0.0217,-0.0487 0.0739,-0.13802 0.0937,-0.1875 0.0198,-0.0495 0.0446,-0.13729 0.0625,-0.1875 L 250.625,107.46875 c 0.0277,-0.0781 0.0708,-0.20162 0.0937,-0.28125 0.023,-0.0796 0.0756,-0.23164 0.0937,-0.3125 0.0182,-0.0809 0.0492,-0.19945 0.0625,-0.28125 0.0133,-0.0818 0.0228,-0.23005 0.0312,-0.3125 0.008,-0.0824 0.0278,-0.22969 0.0312,-0.3125 0.003,-0.0828 0.001,-0.22963 0,-0.3125 -0.001,-0.0829 -0.0248,-0.22987 -0.0312,-0.3125 -0.006,-0.0826 -0.0199,-0.2304 -0.0312,-0.3125 -0.0114,-0.0821 -0.015,-0.19998 -0.0312,-0.28125 -0.0163,-0.0813 -0.0727,-0.23235 -0.0937,-0.3125 -0.0211,-0.0802 -0.0679,-0.20251 -0.0937,-0.28125 -0.0259,-0.0787 -0.0632,-0.23544 -0.0937,-0.3125 -0.0305,-0.0771 -0.0899,-0.20616 -0.125,-0.28125 -0.0351,-0.0751 -0.0855,-0.20839 -0.125,-0.28125 -0.0395,-0.0729 -0.11246,-0.17963 -0.15625,-0.25 -0.0438,-0.0704 -0.13958,-0.18237 -0.1875,-0.25 -0.0479,-0.0676 -0.13563,-0.18536 -0.1875,-0.25 -0.0519,-0.0646 -0.13185,-0.18858 -0.1875,-0.25 -0.0557,-0.0614 -0.15953,-0.16077 -0.21875,-0.21875 -0.0592,-0.058 -0.15617,-0.16441 -0.21875,-0.21875 -0.0626,-0.0543 -0.18428,-0.137 -0.25,-0.1875 -0.0657,-0.0505 -0.18138,-0.14102 -0.25,-0.1875 -0.0686,-0.0465 -0.17872,-0.11396 -0.25,-0.15625 -0.0713,-0.0423 -0.20757,-0.1183 -0.28125,-0.15625 -0.0737,-0.0379 -0.20543,-0.0915 -0.28125,-0.125 -0.0758,-0.0335 -0.20357,-0.0961 -0.28125,-0.125 -0.0777,-0.0289 -0.20198,-0.0696 -0.28125,-0.0937 -0.0793,-0.0242 -0.23192,-0.0743 -0.3125,-0.0937 -0.0806,-0.0194 -0.23091,-0.048 -0.3125,-0.0625 -0.0816,-0.0145 -0.19893,-0.0216 -0.28125,-0.0312 -0.0823,-0.01 -0.22975,-0.0265 -0.3125,-0.0312 -0.0828,-0.005 -0.22962,-2.5e-4 -0.3125,0 l -9.625,0 c -0.0535,-7e-5 -0.13402,-0.002 -0.1875,0 -0.0535,0.002 -0.16539,-0.004 -0.21875,0 -0.0534,0.004 -0.13434,0.0251 -0.1875,0.0312 -0.0532,0.006 -0.13461,0.0231 -0.1875,0.0312 -0.0529,0.008 -0.16622,0.021 -0.21875,0.0312 -0.0525,0.0102 -0.1354,0.019 -0.1875,0.0312 -0.0521,0.0122 -0.13591,0.0483 -0.1875,0.0625 -0.0516,0.0142 -0.1365,0.0463 -0.1875,0.0625 -0.051,0.0162 -0.13716,0.0443 -0.1875,0.0625 -0.0503,0.0182 -0.1379,0.0424 -0.1875,0.0625 -0.0496,0.0201 -0.13872,0.0405 -0.1875,0.0625 -0.0488,0.022 -0.1396,0.0699 -0.1875,0.0937 -0.0479,0.0239 -0.14056,0.068 -0.1875,0.0937 -0.0469,0.0257 -0.11034,0.0662 -0.15625,0.0937 -0.0459,0.0275 -0.14268,0.0957 -0.1875,0.125 -0.0448,0.0293 -0.1126,0.0628 -0.15625,0.0937 -0.0437,0.031 -0.11383,0.0924 -0.15625,0.125 -0.0424,0.0326 -0.11512,0.0908 -0.15625,0.125 -0.0411,0.0342 -0.11647,0.0892 -0.15625,0.125 -0.0398,0.0358 -0.0866,0.11894 -0.125,0.15625 -0.0384,0.0373 -0.11935,0.0862 -0.15625,0.125 -0.0369,0.0388 -0.0896,0.11609 -0.125,0.15625 -0.0354,0.0402 -0.0912,0.11475 -0.125,0.15625 -0.0338,0.0415 -0.0928,0.11348 -0.125,0.15625 -0.0322,0.0428 -0.0945,0.11227 -0.125,0.15625 -0.0305,0.044 -0.0962,0.11112 -0.125,0.15625 -0.0288,0.0451 -0.0668,0.1413 -0.0937,0.1875 -0.027,0.0462 -0.0685,0.10904 -0.0937,0.15625 -0.0252,0.0472 -0.0704,0.13935 -0.0937,0.1875 -0.0234,0.0482 -0.0723,0.13848 -0.0937,0.1875 -0.0215,0.049 -0.0429,0.13769 -0.0625,0.1875 -0.0196,0.0498 -0.0449,0.13697 -0.0625,0.1875 l -11.5,33.1875 -11.46875,-33.1875 c -0.0176,-0.0505 -0.0429,-0.13769 -0.0625,-0.1875 -0.0196,-0.0498 -0.041,-0.13848 -0.0625,-0.1875 -0.0215,-0.049 -0.0704,-0.13935 -0.0937,-0.1875 -0.0234,-0.0482 -0.0685,-0.14029 -0.0937,-0.1875 -0.0252,-0.0472 -0.0668,-0.11005 -0.0937,-0.15625 -0.027,-0.0462 -0.065,-0.14237 -0.0937,-0.1875 -0.0288,-0.0451 -0.0945,-0.11227 -0.125,-0.15625 -0.0305,-0.044 -0.0928,-0.11348 -0.125,-0.15625 -0.0322,-0.0428 -0.0912,-0.11475 -0.125,-0.15625 -0.0338,-0.0415 -0.0896,-0.11609 -0.125,-0.15625 -0.0354,-0.0402 -0.0881,-0.11749 -0.125,-0.15625 -0.0369,-0.0388 -0.11788,-0.0877 -0.15625,-0.125 -0.0384,-0.0373 -0.0852,-0.12045 -0.125,-0.15625 -0.0398,-0.0358 -0.11512,-0.0908 -0.15625,-0.125 -0.0411,-0.0342 -0.11383,-0.0924 -0.15625,-0.125 -0.0424,-0.0326 -0.1126,-0.094 -0.15625,-0.125 -0.0437,-0.031 -0.11143,-0.0645 -0.15625,-0.0937 -0.0448,-0.0293 -0.14159,-0.0975 -0.1875,-0.125 -0.0459,-0.0275 -0.10931,-0.068 -0.15625,-0.0937 -0.0469,-0.0257 -0.1396,-0.0699 -0.1875,-0.0937 -0.0479,-0.0239 -0.13872,-0.0717 -0.1875,-0.0937 -0.0488,-0.022 -0.1379,-0.0424 -0.1875,-0.0625 -0.0496,-0.0201 -0.13716,-0.0443 -0.1875,-0.0625 -0.0503,-0.0182 -0.1365,-0.0463 -0.1875,-0.0625 -0.051,-0.0162 -0.13591,-0.0483 -0.1875,-0.0625 -0.0516,-0.0142 -0.1354,-0.0503 -0.1875,-0.0625 -0.0521,-0.0122 -0.13497,-0.021 -0.1875,-0.0312 -0.0525,-0.0102 -0.16586,-0.0231 -0.21875,-0.0312 -0.0529,-0.008 -0.13434,-0.0251 -0.1875,-0.0312 -0.0532,-0.006 -0.13414,-0.0272 -0.1875,-0.0312 -0.0534,-0.004 -0.16527,0.002 -0.21875,0 -0.0535,-0.002 -0.13398,-7e-5 -0.1875,0 l -9.625,0 c -0.0829,-2.5e-4 -0.22975,-0.005 -0.3125,0 z m -34.34375,16.8125 c 3.4284,4e-5 5.05842,0.76334 6.4375,2.34375 0.009,0.0186 0.0531,0.044 0.0625,0.0625 a 0.5051268,0.5051268 0 0 0 0.0625,0.125 c 0.70693,0.81348 1.28754,2.16901 1.75,3.8125 l -17.8125,0.0312 c 0.60287,-1.36635 1.32319,-2.58361 2.21875,-3.5 1.98203,-2.02811 3.94783,-2.87496 7.28125,-2.875 z"
       transform="translate(-0.12218582,0.51966545)" />
    <text
       xml:space="preserve"
       style="font-size:103.01726532000000702px;font-style:normal;font-variant:normal;font-weight:normal;font-stretch:normal;text-align:start;line-height:125%;letter-spacing:0px;word-spacing:0px;writing-mode:lr-tb;text-anchor:start;fill:#fb8b00;fill-opacity:1;stroke:none;font-family:DejaVu Sans Mono;-inkscape-font-specification:DejaVu Sans Mono"
       x="2.021301"
       y="162.62061"
       id="text2988"
       sodipodi:linespacing="125%"><tspan
         sodipodi:role="line"
         id="tspan2990"
         x="2.021301"
         y="162.62061">TDev</tspan></text>
  </g>
</svg>
